<svg xmlns="http://www.w3.org/2000/svg" viewBox="0 0 800 850" role="img" aria-labelledby="figure-title figure-description"><title id="figure-title">目的値が下がっても、制約違反なら解ではない</title><desc id="figure-description">円の内側が実行可能領域です。制約を評価する経路は境界上の既知最適点へ到達し、制約を無視する経路は目的値0へ進む一方で円外へ出て実行不可能になります。</desc><rect width="800" height="850" rx="24" fill="#f7f6f1"/><text x="42" y="54" class="title">目的値が下がっても、制約違反なら解ではない</text><text x="42" y="84" class="subtitle">min x²+y² · (x−1)²+(y−1)² ≤ 1 · deterministic teaching trace</text><rect x="88.0" y="126.0" width="624.0" height="500.0" rx="16" fill="#fff" stroke="#cfd8d1"/><clipPath id="feasible-plot"><rect x="88.0" y="126.0" width="624.0" height="500.0" rx="16"/></clipPath><g clip-path="url(#feasible-plot)"><circle cx="177.14" cy="554.57" r="111.43" fill="none" stroke="#dedbd2" stroke-width="2"/><circle cx="177.14" cy="554.57" r="222.86" fill="none" stroke="#dedbd2" stroke-width="2"/><circle cx="177.14" cy="554.57" r="315.17" fill="none" stroke="#dedbd2" stroke-width="2"/><circle cx="177.14" cy="554.57" r="445.71" fill="none" stroke="#dedbd2" stroke-width="2"/><circle cx="177.14" cy="554.57" r="630.34" fill="none" stroke="#dedbd2" stroke-width="2"/><circle cx="400.00" cy="376.00" r="222.86" fill="#dcefe4" fill-opacity="0.88" stroke="#245c42" stroke-width="4"/></g><text x="400.00" y="183.14" text-anchor="middle" class="panel-title" fill="#245c42">実行可能領域</text><polyline points="578.29,233.14 500.29,295.64 411.14,367.07 322.00,438.50 255.14,492.07 242.42,502.27" fill="none" stroke="#245c42" stroke-width="6" stroke-linecap="round" stroke-linejoin="round"/><circle cx="578.29" cy="233.14" r="7" fill="#fff" stroke="#245c42" stroke-width="3"/><circle cx="500.29" cy="295.64" r="4" fill="#245c42" stroke="#245c42" stroke-width="3"/><circle cx="411.14" cy="367.07" r="4" fill="#245c42" stroke="#245c42" stroke-width="3"/><circle cx="322.00" cy="438.50" r="4" fill="#245c42" stroke="#245c42" stroke-width="3"/><circle cx="255.14" cy="492.07" r="4" fill="#245c42" stroke="#245c42" stroke-width="3"/><circle cx="242.42" cy="502.27" r="7" fill="#245c42" stroke="#245c42" stroke-width="3"/><polyline points="578.29,233.14 489.14,304.57 377.71,393.86 288.57,465.29 210.57,527.79 177.14,554.57" fill="none" stroke="#c56b32" stroke-width="6" stroke-linecap="round" stroke-linejoin="round" stroke-dasharray="14 9"/><circle cx="578.29" cy="233.14" r="7" fill="#fff" stroke="#c56b32" stroke-width="3"/><circle cx="489.14" cy="304.57" r="4" fill="#c56b32" stroke="#c56b32" stroke-width="3"/><circle cx="377.71" cy="393.86" r="4" fill="#c56b32" stroke="#c56b32" stroke-width="3"/><circle cx="288.57" cy="465.29" r="4" fill="#c56b32" stroke="#c56b32" stroke-width="3"/><circle cx="210.57" cy="527.79" r="4" fill="#c56b32" stroke="#c56b32" stroke-width="3"/><circle cx="177.14" cy="554.57" r="7" fill="#c56b32" stroke="#c56b32" stroke-width="3"/><text x="88" y="654" class="note">○ 共通初期点　● 終了点　実線: 制約を評価　破線: 制約を無視</text><line x1="88" y1="690" x2="124" y2="690" stroke="#245c42" stroke-width="6"/><text x="140" y="696" class="method" fill="#245c42">制約を評価</text><text x="712" y="696" text-anchor="end" class="metric-value">f=0.172 · violation=0.000</text><line x1="88" y1="732" x2="124" y2="732" stroke="#c56b32" stroke-width="6"/><text x="140" y="738" class="method" fill="#c56b32">制約を無視</text><text x="712" y="738" text-anchor="end" class="metric-value">f=0.000 · violation=1.000</text><text x="42" y="790" class="caption">実行生成: optimization_compass.learning_slices.generate_feasible_region_artifact · dataset 0.18.19</text><text x="42" y="824" class="caveat">固定2次元教材です。SLSQPやBFGSの実装性能・一般的な収束性は示しません。</text><style>text{font-family:system-ui,-apple-system,'Segoe UI',sans-serif;fill:#26352d}.title{font-size:28px;font-weight:750}.subtitle{font-size:16px;fill:#617068}.panel-title,.method{font-size:19px;font-weight:750}.metric,.metric-value{font-size:16px;font-variant-numeric:tabular-nums}.metric-value{font-weight:750}.status,.axis,.note{font-size:14px;fill:#617068}.caption{font-size:15px;fill:#46554d}.caveat{font-size:14px;fill:#7a4b38}</style></svg>
