<svg xmlns="http://www.w3.org/2000/svg" viewBox="0 0 440 847" width="440" height="847" role="img" aria-labelledby="figure-title figure-description"><title id="figure-title">0/1 knapsackのDP表と選択の戻り</title><desc id="figure-description">容量8の0/1 knapsackに4つの品物を順に加え、5行9列のDP表を埋める固定実行。最終の価値13から戻ると、重さ4・価値8の品物Aと重さ3・価値5の品物Bを選び、重さの合計7、未使用の容量1となる。</desc><rect width="440" height="847" rx="16" fill="#f7f6f1"/><text x="20" y="34" class="title">小さな部分問題を再利用し、最後に選択を戻す</text><text x="20" y="59" class="subtitle">0/1 knapsack・品物4個・容量8・整数の厳密な表</text><rect x="20" y="84" width="195" height="62" rx="12" fill="#e3f0ea" stroke="#2c7564" stroke-width="2"/><text x="34" y="110" class="panel-title">A</text><text x="203" y="110" text-anchor="end" class="method" style="fill:#2c7564">選択</text><text x="34" y="134" class="status">重さ 4 · 価値 8</text><rect x="225" y="84" width="195" height="62" rx="12" fill="#e3f0ea" stroke="#2c7564" stroke-width="2"/><text x="239" y="110" class="panel-title">B</text><text x="408" y="110" text-anchor="end" class="method" style="fill:#2c7564">選択</text><text x="239" y="134" class="status">重さ 3 · 価値 5</text><rect x="20" y="156" width="195" height="62" rx="12" fill="#fff" stroke="#cad8d2" stroke-width="2"/><text x="34" y="182" class="panel-title">C</text><text x="203" y="182" text-anchor="end" class="method" style="fill:#8a958f">未選択</text><text x="34" y="206" class="status">重さ 5 · 価値 6</text><rect x="225" y="156" width="195" height="62" rx="12" fill="#fff" stroke="#cad8d2" stroke-width="2"/><text x="239" y="182" class="panel-title">D</text><text x="408" y="182" text-anchor="end" class="method" style="fill:#8a958f">未選択</text><text x="239" y="206" class="status">重さ 2 · 価値 4</text><rect x="20" y="230" width="400" height="302" rx="12" fill="#fff" stroke="#d6ddd7"/><text x="34" y="258" class="panel-title">考えた品物 × 容量ごとの最大価値</text><rect x="34" y="273" width="16" height="16" rx="3" fill="#f0c8a6"/><text x="58" y="286" class="note">大きい価値</text><line x1="170" y1="281" x2="196" y2="281" stroke="#2c7564" stroke-width="3"/><text x="204" y="286" class="note">選択を戻る道筋</text><text x="74" y="330" text-anchor="end" class="axis">容量</text><text x="100.00" y="330" text-anchor="middle" class="axis">0</text><text x="136.00" y="330" text-anchor="middle" class="axis">1</text><text x="172.00" y="330" text-anchor="middle" class="axis">2</text><text x="208.00" y="330" text-anchor="middle" class="axis">3</text><text x="244.00" y="330" text-anchor="middle" class="axis">4</text><text x="280.00" y="330" text-anchor="middle" class="axis">5</text><text x="316.00" y="330" text-anchor="middle" class="axis">6</text><text x="352.00" y="330" text-anchor="middle" class="axis">7</text><text x="388.00" y="330" text-anchor="middle" class="axis">8</text><text x="74" y="363.00" text-anchor="end" class="axis">なし</text><rect x="82.00" y="340.00" width="36" height="36" fill="#fff" stroke="#d7e0dc"/><rect x="118.00" y="340.00" width="36" height="36" fill="#fff" stroke="#d7e0dc"/><rect x="154.00" y="340.00" width="36" height="36" fill="#fff" stroke="#d7e0dc"/><rect x="190.00" y="340.00" width="36" height="36" fill="#fff" stroke="#d7e0dc"/><rect x="226.00" y="340.00" width="36" height="36" fill="#fff" stroke="#d7e0dc"/><rect x="262.00" y="340.00" width="36" height="36" fill="#fff" stroke="#d7e0dc"/><rect x="298.00" y="340.00" width="36" height="36" fill="#fff" stroke="#d7e0dc"/><rect x="334.00" y="340.00" width="36" height="36" fill="#fff" stroke="#d7e0dc"/><rect x="370.00" y="340.00" width="36" height="36" fill="#fff" stroke="#d7e0dc"/><text x="74" y="399.00" text-anchor="end" class="axis">A</text><rect x="82.00" y="376.00" width="36" height="36" fill="#fff" stroke="#d7e0dc"/><rect x="118.00" y="376.00" width="36" height="36" fill="#fff" stroke="#d7e0dc"/><rect x="154.00" y="376.00" width="36" height="36" fill="#fff" stroke="#d7e0dc"/><rect x="190.00" y="376.00" width="36" height="36" fill="#fff" stroke="#d7e0dc"/><rect x="226.00" y="376.00" width="36" height="36" fill="#f7e2cf" stroke="#d7e0dc"/><rect x="262.00" y="376.00" width="36" height="36" fill="#f7e2cf" stroke="#d7e0dc"/><rect x="298.00" y="376.00" width="36" height="36" fill="#f7e2cf" stroke="#d7e0dc"/><rect x="334.00" y="376.00" width="36" height="36" fill="#f7e2cf" stroke="#d7e0dc"/><rect x="370.00" y="376.00" width="36" height="36" fill="#f7e2cf" stroke="#d7e0dc"/><text x="74" y="435.00" text-anchor="end" class="axis">A+B</text><rect x="82.00" y="412.00" width="36" height="36" fill="#fff" stroke="#d7e0dc"/><rect x="118.00" y="412.00" width="36" height="36" fill="#fff" stroke="#d7e0dc"/><rect x="154.00" y="412.00" width="36" height="36" fill="#fff" stroke="#d7e0dc"/><rect x="190.00" y="412.00" width="36" height="36" fill="#f7e2cf" stroke="#d7e0dc"/><rect x="226.00" y="412.00" width="36" height="36" fill="#f7e2cf" stroke="#d7e0dc"/><rect x="262.00" y="412.00" width="36" height="36" fill="#f7e2cf" stroke="#d7e0dc"/><rect x="298.00" y="412.00" width="36" height="36" fill="#f7e2cf" stroke="#d7e0dc"/><rect x="334.00" y="412.00" width="36" height="36" fill="#f0c8a6" stroke="#d7e0dc"/><rect x="370.00" y="412.00" width="36" height="36" fill="#f0c8a6" stroke="#d7e0dc"/><text x="74" y="471.00" text-anchor="end" class="axis">A〜C</text><rect x="82.00" y="448.00" width="36" height="36" fill="#fff" stroke="#d7e0dc"/><rect x="118.00" y="448.00" width="36" height="36" fill="#fff" stroke="#d7e0dc"/><rect x="154.00" y="448.00" width="36" height="36" fill="#fff" stroke="#d7e0dc"/><rect x="190.00" y="448.00" width="36" height="36" fill="#f7e2cf" stroke="#d7e0dc"/><rect x="226.00" y="448.00" width="36" height="36" fill="#f7e2cf" stroke="#d7e0dc"/><rect x="262.00" y="448.00" width="36" height="36" fill="#f7e2cf" stroke="#d7e0dc"/><rect x="298.00" y="448.00" width="36" height="36" fill="#f7e2cf" stroke="#d7e0dc"/><rect x="334.00" y="448.00" width="36" height="36" fill="#f0c8a6" stroke="#d7e0dc"/><rect x="370.00" y="448.00" width="36" height="36" fill="#f0c8a6" stroke="#d7e0dc"/><text x="74" y="507.00" text-anchor="end" class="axis">A〜D</text><rect x="82.00" y="484.00" width="36" height="36" fill="#fff" stroke="#d7e0dc"/><rect x="118.00" y="484.00" width="36" height="36" fill="#fff" stroke="#d7e0dc"/><rect x="154.00" y="484.00" width="36" height="36" fill="#f7e2cf" stroke="#d7e0dc"/><rect x="190.00" y="484.00" width="36" height="36" fill="#f7e2cf" stroke="#d7e0dc"/><rect x="226.00" y="484.00" width="36" height="36" fill="#f7e2cf" stroke="#d7e0dc"/><rect x="262.00" y="484.00" width="36" height="36" fill="#f7e2cf" stroke="#d7e0dc"/><rect x="298.00" y="484.00" width="36" height="36" fill="#f0c8a6" stroke="#d7e0dc"/><rect x="334.00" y="484.00" width="36" height="36" fill="#f0c8a6" stroke="#d7e0dc"/><rect x="370.00" y="484.00" width="36" height="36" fill="#2c7564" stroke="#d7e0dc"/><polyline points="388.00,502.00 388.00,466.00 388.00,430.00 280.00,394.00 136.00,358.00" fill="none" stroke="#2c7564" stroke-width="3" stroke-linecap="round" stroke-linejoin="round" opacity="0.7"/><rect x="120.00" y="342.00" width="32" height="32" rx="4" fill="none" stroke="#2c7564" stroke-width="2.5"/><rect x="264.00" y="378.00" width="32" height="32" rx="4" fill="none" stroke="#2c7564" stroke-width="2.5"/><rect x="372.00" y="414.00" width="32" height="32" rx="4" fill="none" stroke="#2c7564" stroke-width="2.5"/><rect x="372.00" y="450.00" width="32" height="32" rx="4" fill="none" stroke="#2c7564" stroke-width="2.5"/><rect x="372.00" y="486.00" width="32" height="32" rx="4" fill="none" stroke="#2c7564" stroke-width="2.5"/><text x="100.00" y="364.00" text-anchor="middle" class="metric-value">0</text><text x="136.00" y="364.00" text-anchor="middle" class="metric-value halo">0</text><text x="172.00" y="364.00" text-anchor="middle" class="metric-value">0</text><text x="208.00" y="364.00" text-anchor="middle" class="metric-value">0</text><text x="244.00" y="364.00" text-anchor="middle" class="metric-value">0</text><text x="280.00" y="364.00" text-anchor="middle" class="metric-value">0</text><text x="316.00" y="364.00" text-anchor="middle" class="metric-value">0</text><text x="352.00" y="364.00" text-anchor="middle" class="metric-value">0</text><text x="388.00" y="364.00" text-anchor="middle" class="metric-value">0</text><text x="100.00" y="400.00" text-anchor="middle" class="metric-value">0</text><text x="136.00" y="400.00" text-anchor="middle" class="metric-value">0</text><text x="172.00" y="400.00" text-anchor="middle" class="metric-value">0</text><text x="208.00" y="400.00" text-anchor="middle" class="metric-value">0</text><text x="244.00" y="400.00" text-anchor="middle" class="metric-value">8</text><text x="280.00" y="400.00" text-anchor="middle" class="metric-value halo">8</text><text x="316.00" y="400.00" text-anchor="middle" class="metric-value">8</text><text x="352.00" y="400.00" text-anchor="middle" class="metric-value">8</text><text x="388.00" y="400.00" text-anchor="middle" class="metric-value">8</text><text x="100.00" y="436.00" text-anchor="middle" class="metric-value">0</text><text x="136.00" y="436.00" text-anchor="middle" class="metric-value">0</text><text x="172.00" y="436.00" text-anchor="middle" class="metric-value">0</text><text x="208.00" y="436.00" text-anchor="middle" class="metric-value">5</text><text x="244.00" y="436.00" text-anchor="middle" class="metric-value">8</text><text x="280.00" y="436.00" text-anchor="middle" class="metric-value">8</text><text x="316.00" y="436.00" text-anchor="middle" class="metric-value">8</text><text x="352.00" y="436.00" text-anchor="middle" class="metric-value">13</text><text x="388.00" y="436.00" text-anchor="middle" class="metric-value halo">13</text><text x="100.00" y="472.00" text-anchor="middle" class="metric-value">0</text><text x="136.00" y="472.00" text-anchor="middle" class="metric-value">0</text><text x="172.00" y="472.00" text-anchor="middle" class="metric-value">0</text><text x="208.00" y="472.00" text-anchor="middle" class="metric-value">5</text><text x="244.00" y="472.00" text-anchor="middle" class="metric-value">8</text><text x="280.00" y="472.00" text-anchor="middle" class="metric-value">8</text><text x="316.00" y="472.00" text-anchor="middle" class="metric-value">8</text><text x="352.00" y="472.00" text-anchor="middle" class="metric-value">13</text><text x="388.00" y="472.00" text-anchor="middle" class="metric-value halo">13</text><text x="100.00" y="508.00" text-anchor="middle" class="metric-value">0</text><text x="136.00" y="508.00" text-anchor="middle" class="metric-value">0</text><text x="172.00" y="508.00" text-anchor="middle" class="metric-value">4</text><text x="208.00" y="508.00" text-anchor="middle" class="metric-value">5</text><text x="244.00" y="508.00" text-anchor="middle" class="metric-value">8</text><text x="280.00" y="508.00" text-anchor="middle" class="metric-value">9</text><text x="316.00" y="508.00" text-anchor="middle" class="metric-value">12</text><text x="352.00" y="508.00" text-anchor="middle" class="metric-value">13</text><text x="388.00" y="508.00" text-anchor="middle" class="metric-value" style="fill:#fff">13</text><text x="20" y="566" class="metric">選んだ品物</text><text x="420" y="566" text-anchor="end" class="metric-value">A + B</text><text x="20" y="592" class="metric">重さの合計</text><text x="420" y="592" text-anchor="end" class="metric-value">7 / 8</text><text x="20" y="618" class="metric">最適な価値</text><text x="420" y="618" text-anchor="end" class="metric-value">13</text><text x="20" y="650" class="status">戻った結果: A（重さ 4、価値 8） + B（重さ 3、</text><text x="20" y="671" class="status">価値 5） · 未使用の容量 1</text><text x="20" y="698" class="caption">実行生成: scripts.generate_article_figures.</text><text x="20" y="719" class="caption">_dynamic_programming_knapsack_probe ·</text><text x="20" y="740" class="caption">dataset 0.18.21</text><text x="20" y="765" class="caveat">固定した品物4個の整数knapsackです。別のinstance、</text><text x="20" y="786" class="caveat">連続量、近似、solver一般の性能は示しません。</text><text x="20" y="807" class="caveat">表の大きさはO(nC)で容量の値に依存し、</text><text x="20" y="828" class="caveat">大規模な状態空間での実用性は示しません。</text><style>text{font-family:system-ui,-apple-system,'Segoe UI',sans-serif;fill:#26352d;font-size:15px}.title{font-size:18px;font-weight:750}.subtitle{fill:#617068}.panel-title{font-size:17px;font-weight:750}.method{font-size:16px;font-weight:750}.metric,.metric-value{font-size:16px;font-variant-numeric:tabular-nums}.metric-value{font-weight:750}.status,.axis,.note{fill:#617068}.caption{fill:#46554d}.caveat{fill:#7a4b38}.halo{paint-order:stroke;stroke:#fff;stroke-width:4px;stroke-linejoin:round}</style></svg>
