<?xml version="1.0" encoding="utf-8" standalone="no"?>
<!DOCTYPE svg PUBLIC "-//W3C//DTD SVG 1.1//EN"
  "http://www.w3.org/Graphics/SVG/1.1/DTD/svg11.dtd">
<svg xmlns:xlink="http://www.w3.org/1999/xlink" width="777.6pt" height="338.4pt" viewBox="0 0 777.6 338.4" xmlns="http://www.w3.org/2000/svg" version="1.1">
 <metadata>
  <rdf:RDF xmlns:dc="http://purl.org/dc/elements/1.1/" xmlns:cc="http://creativecommons.org/ns#" xmlns:rdf="http://www.w3.org/1999/02/22-rdf-syntax-ns#">
   <cc:Work>
    <dc:type rdf:resource="http://purl.org/dc/dcmitype/StillImage"/>
    <dc:date>2026-10-04T02:14:01.313962</dc:date>
    <dc:format>image/svg+xml</dc:format>
    <dc:creator>
     <cc:Agent>
      <dc:title>Matplotlib v3.10.8, https://matplotlib.org/</dc:title>
     </cc:Agent>
    </dc:creator>
   </cc:Work>
  </rdf:RDF>
 </metadata>
 <defs>
  <style type="text/css">*{stroke-linejoin: round; stroke-linecap: butt}</style>
 </defs>
 <g id="figure_1">
  <g id="patch_1">
   <path d="M 0 338.4 
L 777.6 338.4 
L 777.6 0 
L 0 0 
z
" style="fill: #ffffff"/>
  </g>
  <g id="axes_1">
   <g id="patch_2">
    <path d="M 37.48524 301.84976 
L 768.49476 301.84976 
L 768.49476 19.506615 
L 37.48524 19.506615 
z
" style="fill: #ffffff"/>
   </g>
   <g id="matplotlib.axis_1">
    <g id="xtick_1">
     <g id="line2d_1">
      <path d="M 37.48524 301.84976 
L 37.48524 19.506615 
" clip-path="url(#pfd5b8fbebe)" style="fill: none; stroke: #b0b0b0; stroke-opacity: 0.15; stroke-width: 0.8; stroke-linecap: square"/>
     </g>
     <g id="line2d_2">
      <defs>
       <path id="m1afbf1b2d7" d="M 0 0 
L 0 3.5 
" style="stroke: #000000; stroke-width: 0.8"/>
      </defs>
      <g>
       <use xlink:href="#m1afbf1b2d7" x="37.48524" y="301.84976" style="stroke: #000000; stroke-width: 0.8"/>
      </g>
     </g>
     <g id="text_1">
      <!-- 12 -->
      <g transform="translate(31.38024 317.605073) scale(0.11 -0.11)">
       <defs>
        <path id="NotoSansCJKjp-Regular-31" d="M 563 0 
L 3136 0 
L 3136 486 
L 2195 486 
L 2195 4691 
L 1747 4691 
C 1491 4544 1190 4435 774 4358 
L 774 3987 
L 1613 3987 
L 1613 486 
L 563 486 
L 563 0 
z
" transform="scale(0.015625)"/>
        <path id="NotoSansCJKjp-Regular-32" d="M 282 0 
L 3232 0 
L 3232 506 
L 1933 506 
C 1696 506 1408 480 1165 461 
C 2266 1504 3008 2458 3008 3398 
C 3008 4230 2477 4774 1638 4774 
C 1043 4774 634 4506 256 4090 
L 595 3757 
C 858 4070 1184 4301 1568 4301 
C 2150 4301 2432 3910 2432 3373 
C 2432 2566 1754 1632 282 346 
L 282 0 
z
" transform="scale(0.015625)"/>
       </defs>
       <use xlink:href="#NotoSansCJKjp-Regular-31"/>
       <use xlink:href="#NotoSansCJKjp-Regular-32" transform="translate(55.499985 0)"/>
      </g>
     </g>
    </g>
    <g id="xtick_2">
     <g id="line2d_3">
      <path d="M 194.130137 301.84976 
L 194.130137 19.506615 
" clip-path="url(#pfd5b8fbebe)" style="fill: none; stroke: #b0b0b0; stroke-opacity: 0.15; stroke-width: 0.8; stroke-linecap: square"/>
     </g>
     <g id="line2d_4">
      <g>
       <use xlink:href="#m1afbf1b2d7" x="194.130137" y="301.84976" style="stroke: #000000; stroke-width: 0.8"/>
      </g>
     </g>
     <g id="text_2">
      <!-- 18 -->
      <g transform="translate(188.025137 317.605073) scale(0.11 -0.11)">
       <defs>
        <path id="NotoSansCJKjp-Regular-38" d="M 1792 -83 
C 2669 -83 3258 448 3258 1126 
C 3258 1773 2880 2125 2470 2362 
L 2470 2394 
C 2746 2611 3091 3034 3091 3526 
C 3091 4250 2605 4762 1805 4762 
C 1075 4762 518 4282 518 3571 
C 518 3078 813 2726 1152 2490 
L 1152 2464 
C 723 2234 294 1792 294 1165 
C 294 442 922 -83 1792 -83 
z
M 2112 2547 
C 1555 2765 1050 3014 1050 3571 
C 1050 4026 1363 4326 1798 4326 
C 2298 4326 2592 3962 2592 3494 
C 2592 3149 2426 2829 2112 2547 
z
M 1798 352 
C 1235 352 813 717 813 1216 
C 813 1664 1082 2035 1459 2278 
C 2125 2010 2701 1779 2701 1146 
C 2701 678 2342 352 1798 352 
z
" transform="scale(0.015625)"/>
       </defs>
       <use xlink:href="#NotoSansCJKjp-Regular-31"/>
       <use xlink:href="#NotoSansCJKjp-Regular-38" transform="translate(55.499985 0)"/>
      </g>
     </g>
    </g>
    <g id="xtick_3">
     <g id="line2d_5">
      <path d="M 350.775034 301.84976 
L 350.775034 19.506615 
" clip-path="url(#pfd5b8fbebe)" style="fill: none; stroke: #b0b0b0; stroke-opacity: 0.15; stroke-width: 0.8; stroke-linecap: square"/>
     </g>
     <g id="line2d_6">
      <g>
       <use xlink:href="#m1afbf1b2d7" x="350.775034" y="301.84976" style="stroke: #000000; stroke-width: 0.8"/>
      </g>
     </g>
     <g id="text_3">
      <!-- 24 -->
      <g transform="translate(344.670034 317.605073) scale(0.11 -0.11)">
       <defs>
        <path id="NotoSansCJKjp-Regular-34" d="M 2176 0 
L 2726 0 
L 2726 1293 
L 3354 1293 
L 3354 1760 
L 2726 1760 
L 2726 4691 
L 2080 4691 
L 128 1677 
L 128 1293 
L 2176 1293 
L 2176 0 
z
M 2176 1760 
L 736 1760 
L 1805 3360 
C 1939 3590 2067 3827 2182 4051 
L 2208 4051 
C 2195 3814 2176 3430 2176 3200 
L 2176 1760 
z
" transform="scale(0.015625)"/>
       </defs>
       <use xlink:href="#NotoSansCJKjp-Regular-32"/>
       <use xlink:href="#NotoSansCJKjp-Regular-34" transform="translate(55.499985 0)"/>
      </g>
     </g>
    </g>
    <g id="xtick_4">
     <g id="line2d_7">
      <path d="M 507.419931 301.84976 
L 507.419931 19.506615 
" clip-path="url(#pfd5b8fbebe)" style="fill: none; stroke: #b0b0b0; stroke-opacity: 0.15; stroke-width: 0.8; stroke-linecap: square"/>
     </g>
     <g id="line2d_8">
      <g>
       <use xlink:href="#m1afbf1b2d7" x="507.419931" y="301.84976" style="stroke: #000000; stroke-width: 0.8"/>
      </g>
     </g>
     <g id="text_4">
      <!-- 30 -->
      <g transform="translate(501.314931 317.605073) scale(0.11 -0.11)">
       <defs>
        <path id="NotoSansCJKjp-Regular-33" d="M 1683 -83 
C 2522 -83 3194 416 3194 1254 
C 3194 1901 2752 2310 2202 2445 
L 2202 2477 
C 2701 2650 3034 3034 3034 3603 
C 3034 4346 2458 4774 1664 4774 
C 1126 4774 710 4538 358 4218 
L 672 3846 
C 941 4115 1267 4301 1645 4301 
C 2138 4301 2438 4006 2438 3558 
C 2438 3053 2112 2662 1139 2662 
L 1139 2214 
C 2227 2214 2598 1843 2598 1274 
C 2598 736 2208 403 1645 403 
C 1114 403 762 659 486 941 
L 186 563 
C 493 224 954 -83 1683 -83 
z
" transform="scale(0.015625)"/>
        <path id="NotoSansCJKjp-Regular-30" d="M 1779 -83 
C 2669 -83 3238 723 3238 2362 
C 3238 3987 2669 4774 1779 4774 
C 883 4774 320 3987 320 2362 
C 320 723 883 -83 1779 -83 
z
M 1779 390 
C 1248 390 883 986 883 2362 
C 883 3731 1248 4314 1779 4314 
C 2310 4314 2675 3731 2675 2362 
C 2675 986 2310 390 1779 390 
z
" transform="scale(0.015625)"/>
       </defs>
       <use xlink:href="#NotoSansCJKjp-Regular-33"/>
       <use xlink:href="#NotoSansCJKjp-Regular-30" transform="translate(55.499985 0)"/>
      </g>
     </g>
    </g>
    <g id="xtick_5">
     <g id="line2d_9">
      <path d="M 664.064829 301.84976 
L 664.064829 19.506615 
" clip-path="url(#pfd5b8fbebe)" style="fill: none; stroke: #b0b0b0; stroke-opacity: 0.15; stroke-width: 0.8; stroke-linecap: square"/>
     </g>
     <g id="line2d_10">
      <g>
       <use xlink:href="#m1afbf1b2d7" x="664.064829" y="301.84976" style="stroke: #000000; stroke-width: 0.8"/>
      </g>
     </g>
     <g id="text_5">
      <!-- 36 -->
      <g transform="translate(657.959829 317.605073) scale(0.11 -0.11)">
       <defs>
        <path id="NotoSansCJKjp-Regular-36" d="M 1926 -83 
C 2656 -83 3277 531 3277 1440 
C 3277 2426 2765 2912 1971 2912 
C 1606 2912 1197 2701 909 2349 
C 934 3802 1466 4294 2118 4294 
C 2400 4294 2682 4154 2861 3936 
L 3194 4294 
C 2931 4576 2579 4774 2093 4774 
C 1184 4774 358 4077 358 2240 
C 358 691 1030 -83 1926 -83 
z
M 922 1882 
C 1229 2317 1587 2477 1875 2477 
C 2445 2477 2720 2074 2720 1440 
C 2720 800 2374 378 1926 378 
C 1338 378 986 909 922 1882 
z
" transform="scale(0.015625)"/>
       </defs>
       <use xlink:href="#NotoSansCJKjp-Regular-33"/>
       <use xlink:href="#NotoSansCJKjp-Regular-36" transform="translate(55.499985 0)"/>
      </g>
     </g>
    </g>
    <g id="xtick_6">
     <g id="line2d_11">
      <path d="M 768.49476 301.84976 
L 768.49476 19.506615 
" clip-path="url(#pfd5b8fbebe)" style="fill: none; stroke: #b0b0b0; stroke-opacity: 0.15; stroke-width: 0.8; stroke-linecap: square"/>
     </g>
     <g id="line2d_12">
      <g>
       <use xlink:href="#m1afbf1b2d7" x="768.49476" y="301.84976" style="stroke: #000000; stroke-width: 0.8"/>
      </g>
     </g>
     <g id="text_6">
      <!-- 40 -->
      <g transform="translate(762.38976 317.605073) scale(0.11 -0.11)">
       <use xlink:href="#NotoSansCJKjp-Regular-34"/>
       <use xlink:href="#NotoSansCJKjp-Regular-30" transform="translate(55.499985 0)"/>
      </g>
     </g>
    </g>
    <g id="text_7">
     <!-- 排出上限 ε（右ほど緩い） -->
     <g transform="translate(338.5025 332.880073) scale(0.11 -0.11)">
      <defs>
       <path id="NotoSansCJKjp-Regular-6392" d="M 1984 1274 
L 2170 858 
L 3200 1235 
C 3046 685 2739 198 2138 -198 
C 2240 -275 2400 -422 2477 -518 
C 3642 269 3789 1395 3789 2675 
L 3789 5376 
L 3347 5376 
L 3347 4282 
L 2298 4282 
L 2298 3840 
L 3347 3840 
L 3347 2944 
L 2342 2944 
L 2342 2509 
L 3347 2509 
C 3341 2221 3328 1939 3290 1677 
C 2803 1517 2330 1363 1984 1274 
z
M 4454 5376 
L 4454 -506 
L 4909 -506 
L 4909 1107 
L 6144 1107 
L 6144 1549 
L 4909 1549 
L 4909 2509 
L 5971 2509 
L 5971 2944 
L 4909 2944 
L 4909 3840 
L 6035 3840 
L 6035 4282 
L 4909 4282 
L 4909 5376 
L 4454 5376 
z
M 1069 5370 
L 1069 4083 
L 269 4083 
L 269 3635 
L 1069 3635 
L 1069 2323 
L 179 2054 
L 301 1594 
L 1069 1843 
L 1069 45 
C 1069 -45 1037 -70 960 -70 
C 883 -77 634 -77 358 -64 
C 416 -198 480 -397 493 -512 
C 902 -518 1146 -499 1299 -422 
C 1459 -352 1517 -218 1517 45 
L 1517 1990 
L 2221 2221 
L 2150 2662 
L 1517 2464 
L 1517 3635 
L 2208 3635 
L 2208 4083 
L 1517 4083 
L 1517 5370 
L 1069 5370 
z
" transform="scale(0.015625)"/>
       <path id="NotoSansCJKjp-Regular-51fa" d="M 966 4768 
L 966 2560 
L 2918 2560 
L 2918 365 
L 1203 365 
L 1203 2144 
L 723 2144 
L 723 -512 
L 1203 -512 
L 1203 -109 
L 5222 -109 
L 5222 -499 
L 5715 -499 
L 5715 2144 
L 5222 2144 
L 5222 365 
L 3418 365 
L 3418 2560 
L 5459 2560 
L 5459 4768 
L 4960 4768 
L 4960 3021 
L 3418 3021 
L 3418 5344 
L 2918 5344 
L 2918 3021 
L 1446 3021 
L 1446 4768 
L 966 4768 
z
" transform="scale(0.015625)"/>
       <path id="NotoSansCJKjp-Regular-4e0a" d="M 2733 5280 
L 2733 275 
L 326 275 
L 326 -205 
L 6080 -205 
L 6080 275 
L 3238 275 
L 3238 2822 
L 5638 2822 
L 5638 3302 
L 3238 3302 
L 3238 5280 
L 2733 5280 
z
" transform="scale(0.015625)"/>
       <path id="NotoSansCJKjp-Regular-9650" d="M 3309 3482 
L 5261 3482 
L 5261 2675 
L 3309 2675 
L 3309 3482 
z
M 3309 3885 
L 3309 4672 
L 5261 4672 
L 5261 3885 
L 3309 3885 
z
M 5632 2106 
C 5414 1862 5082 1562 4774 1325 
C 4634 1613 4518 1926 4422 2253 
L 5734 2253 
L 5734 5094 
L 2842 5094 
L 2842 179 
L 2118 45 
L 2278 -422 
C 2906 -282 3757 -90 4570 96 
L 4531 512 
L 3309 269 
L 3309 2253 
L 4000 2253 
C 4314 992 4896 -6 5850 -493 
C 5920 -371 6061 -186 6170 -96 
C 5670 128 5274 506 4966 986 
C 5299 1222 5696 1536 6003 1830 
L 5632 2106 
z
M 525 5101 
L 525 -512 
L 979 -512 
L 979 4666 
L 1920 4666 
C 1766 4224 1555 3635 1350 3168 
C 1856 2662 1990 2240 1990 1888 
C 1990 1696 1952 1530 1850 1459 
C 1779 1414 1702 1402 1619 1389 
C 1504 1389 1363 1389 1197 1408 
C 1274 1280 1318 1088 1325 966 
C 1485 960 1664 954 1805 973 
C 1939 992 2067 1024 2163 1094 
C 2349 1222 2438 1485 2432 1843 
C 2432 2240 2310 2694 1792 3226 
C 2035 3731 2298 4390 2502 4922 
L 2182 5120 
L 2106 5101 
L 525 5101 
z
" transform="scale(0.015625)"/>
       <path id="NotoSansCJKjp-Regular-20" transform="scale(0.015625)"/>
       <path id="NotoSansCJKjp-Regular-3b5" d="M 1798 -83 
C 2285 -83 2643 26 3066 346 
L 2810 736 
C 2483 474 2195 384 1856 384 
C 1267 384 915 621 915 1011 
C 915 1395 1197 1600 1773 1600 
C 1946 1600 2112 1594 2317 1581 
L 2317 2035 
C 2144 2022 2016 2016 1875 2016 
C 1318 2016 1082 2240 1082 2554 
C 1082 2912 1414 3098 1843 3098 
C 2163 3098 2445 2989 2714 2790 
L 2950 3187 
C 2630 3418 2246 3565 1824 3565 
C 1114 3565 499 3258 499 2624 
C 499 2298 691 1984 1050 1850 
L 1050 1818 
C 653 1722 333 1453 333 960 
C 333 314 934 -83 1798 -83 
z
" transform="scale(0.015625)"/>
       <path id="NotoSansCJKjp-Regular-ff08" d="M 4448 2432 
C 4448 1184 4954 166 5722 -614 
L 6106 -416 
C 5370 346 4915 1293 4915 2432 
C 4915 3571 5370 4518 6106 5280 
L 5722 5478 
C 4954 4698 4448 3680 4448 2432 
z
" transform="scale(0.015625)"/>
       <path id="NotoSansCJKjp-Regular-53f3" d="M 2637 5376 
C 2554 4979 2445 4576 2310 4179 
L 416 4179 
L 416 3712 
L 2138 3712 
C 1728 2688 1114 1754 198 1133 
C 301 1037 448 864 525 749 
C 992 1082 1382 1485 1715 1939 
L 1715 -518 
L 2195 -518 
L 2195 -160 
L 5043 -160 
L 5043 -486 
L 5542 -486 
L 5542 2470 
L 2067 2470 
C 2298 2861 2496 3277 2662 3712 
L 6010 3712 
L 6010 4179 
L 2829 4179 
C 2944 4544 3046 4909 3136 5280 
L 2637 5376 
z
M 2195 307 
L 2195 2003 
L 5043 2003 
L 5043 307 
L 2195 307 
z
" transform="scale(0.015625)"/>
       <path id="NotoSansCJKjp-Regular-307b" d="M 1632 4851 
L 1062 4902 
C 1062 4768 1043 4595 1024 4448 
C 941 3923 736 2726 736 1786 
C 736 922 845 218 979 -237 
L 1434 -205 
C 1427 -134 1421 -45 1414 19 
C 1414 96 1427 218 1446 307 
C 1510 621 1741 1280 1901 1722 
L 1638 1933 
C 1530 1670 1370 1267 1267 973 
C 1229 1286 1210 1568 1210 1875 
C 1210 2592 1389 3834 1517 4429 
C 1542 4544 1594 4749 1632 4851 
z
M 4243 1152 
L 4250 883 
C 4250 544 4128 288 3622 288 
C 3174 288 2893 448 2893 768 
C 2893 1043 3194 1235 3648 1235 
C 3846 1235 4045 1203 4243 1152 
z
M 2726 4589 
L 2726 4141 
C 3200 4115 3699 4115 4173 4134 
L 4173 3072 
C 3674 3059 3149 3066 2630 3104 
L 2630 2637 
C 3142 2611 3674 2605 4173 2624 
C 4186 2285 4205 1901 4224 1574 
C 4045 1600 3859 1619 3661 1619 
C 2816 1619 2438 1190 2438 742 
C 2438 141 2963 -154 3667 -154 
C 4358 -154 4717 147 4717 666 
L 4710 973 
C 5094 787 5459 518 5779 186 
L 6054 634 
C 5734 915 5286 1261 4685 1453 
C 4666 1824 4640 2234 4634 2637 
C 5082 2662 5491 2694 5830 2733 
L 5830 3200 
C 5472 3155 5069 3117 4634 3098 
L 4634 4154 
C 5030 4173 5389 4198 5683 4230 
L 5683 4678 
C 4934 4576 3757 4512 2726 4589 
z
" transform="scale(0.015625)"/>
       <path id="NotoSansCJKjp-Regular-3069" d="M 4973 4960 
L 4627 4813 
C 4806 4570 5024 4186 5152 3923 
L 5498 4077 
C 5363 4339 5133 4730 4973 4960 
z
M 5677 5216 
L 5338 5075 
C 5523 4832 5734 4467 5875 4192 
L 6214 4346 
C 6093 4582 5850 4986 5677 5216 
z
M 1798 4896 
L 1293 4685 
C 1594 3994 1933 3245 2227 2714 
C 1536 2240 1120 1722 1120 1056 
C 1120 96 1984 -262 3187 -262 
C 3987 -262 4730 -192 5210 -102 
L 5216 467 
C 4717 339 3866 250 3168 250 
C 2157 250 1651 582 1651 1114 
C 1651 1600 2010 2022 2598 2406 
C 3226 2822 3942 3155 4378 3386 
C 4563 3482 4723 3565 4864 3648 
L 4608 4115 
C 4474 4006 4333 3917 4154 3814 
C 3802 3616 3219 3334 2656 2995 
C 2381 3501 2054 4192 1798 4896 
z
" transform="scale(0.015625)"/>
       <path id="NotoSansCJKjp-Regular-7de9" d="M 3846 4512 
C 3962 4243 4077 3891 4109 3654 
L 4499 3770 
C 4454 3994 4346 4339 4211 4602 
L 3846 4512 
z
M 5638 5299 
C 4915 5133 3610 5011 2554 4960 
C 2598 4858 2650 4698 2662 4595 
C 3738 4640 5075 4755 5914 4934 
L 5638 5299 
z
M 1811 1638 
C 1965 1267 2086 781 2112 461 
L 2477 576 
C 2438 890 2310 1370 2157 1741 
L 1811 1638 
z
M 570 1715 
C 493 1158 378 582 166 192 
C 269 154 448 70 525 19 
C 723 429 877 1043 960 1651 
L 570 1715 
z
M 2528 2643 
L 2528 2253 
L 3398 2253 
C 3181 1184 2784 358 2054 -192 
C 2163 -256 2355 -416 2426 -493 
C 2906 -83 3258 429 3507 1062 
C 3693 794 3910 550 4160 339 
C 3834 109 3475 -58 3098 -166 
C 3187 -250 3296 -403 3341 -506 
C 3750 -371 4147 -173 4499 83 
C 4909 -192 5389 -403 5907 -531 
C 5971 -403 6106 -230 6202 -134 
C 5702 -32 5242 141 4838 371 
C 5210 730 5504 1178 5683 1747 
L 5408 1856 
L 5325 1843 
L 3757 1843 
L 3853 2253 
L 6086 2253 
L 6086 2643 
L 3923 2643 
L 3994 3187 
L 6022 3187 
L 6022 3571 
L 5306 3571 
C 5498 3846 5728 4243 5914 4582 
L 5485 4730 
C 5357 4403 5114 3923 4915 3635 
L 5075 3571 
L 3181 3571 
L 3494 3686 
C 3437 3910 3277 4250 3117 4493 
L 2752 4378 
C 2906 4128 3046 3802 3104 3571 
L 2624 3571 
L 2624 3187 
L 3539 3187 
L 3469 2643 
L 2528 2643 
z
M 5120 1459 
C 4966 1126 4749 845 4486 602 
C 4166 845 3898 1133 3706 1459 
L 5120 1459 
z
M 179 2547 
L 237 2118 
L 1210 2176 
L 1210 -512 
L 1626 -512 
L 1626 2202 
L 2106 2240 
C 2157 2086 2195 1939 2214 1824 
L 2579 1978 
C 2509 2336 2272 2899 2035 3328 
L 1696 3194 
C 1786 3021 1875 2829 1952 2637 
L 1094 2592 
C 1510 3136 1978 3866 2330 4467 
L 1933 4646 
C 1766 4301 1530 3878 1280 3475 
C 1190 3603 1075 3744 947 3885 
C 1178 4243 1446 4774 1670 5216 
L 1254 5376 
C 1126 5018 896 4525 691 4154 
L 486 4352 
L 237 4051 
C 531 3776 858 3398 1043 3104 
C 915 2906 787 2726 666 2566 
L 179 2547 
z
" transform="scale(0.015625)"/>
       <path id="NotoSansCJKjp-Regular-3044" d="M 1427 4467 
L 806 4480 
C 845 4326 851 4058 851 3910 
C 851 3539 858 2758 922 2202 
C 1094 544 1677 -58 2285 -58 
C 2714 -58 3104 314 3488 1402 
L 3085 1856 
C 2918 1216 2618 550 2291 550 
C 1837 550 1523 1261 1421 2330 
C 1376 2861 1370 3443 1376 3846 
C 1376 4013 1402 4314 1427 4467 
z
M 4762 4288 
L 4262 4115 
C 4877 3366 5261 2054 5376 896 
L 5888 1107 
C 5792 2189 5331 3546 4762 4288 
z
" transform="scale(0.015625)"/>
       <path id="NotoSansCJKjp-Regular-ff09" d="M 1952 2432 
C 1952 3680 1446 4698 678 5478 
L 294 5280 
C 1030 4518 1485 3571 1485 2432 
C 1485 1293 1030 346 294 -416 
L 678 -614 
C 1446 166 1952 1184 1952 2432 
z
" transform="scale(0.015625)"/>
      </defs>
      <use xlink:href="#NotoSansCJKjp-Regular-6392"/>
      <use xlink:href="#NotoSansCJKjp-Regular-51fa" transform="translate(99.999985 0)"/>
      <use xlink:href="#NotoSansCJKjp-Regular-4e0a" transform="translate(199.999969 0)"/>
      <use xlink:href="#NotoSansCJKjp-Regular-9650" transform="translate(299.999954 0)"/>
      <use xlink:href="#NotoSansCJKjp-Regular-20" transform="translate(399.999939 0)"/>
      <use xlink:href="#NotoSansCJKjp-Regular-3b5" transform="translate(422.399933 0)"/>
      <use xlink:href="#NotoSansCJKjp-Regular-ff08" transform="translate(472.499924 0)"/>
      <use xlink:href="#NotoSansCJKjp-Regular-53f3" transform="translate(572.499908 0)"/>
      <use xlink:href="#NotoSansCJKjp-Regular-307b" transform="translate(672.499893 0)"/>
      <use xlink:href="#NotoSansCJKjp-Regular-3069" transform="translate(772.499878 0)"/>
      <use xlink:href="#NotoSansCJKjp-Regular-7de9" transform="translate(872.499863 0)"/>
      <use xlink:href="#NotoSansCJKjp-Regular-3044" transform="translate(972.499847 0)"/>
      <use xlink:href="#NotoSansCJKjp-Regular-ff09" transform="translate(1072.499832 0)"/>
     </g>
    </g>
   </g>
   <g id="matplotlib.axis_2">
    <g id="ytick_1">
     <g id="line2d_13">
      <path d="M 37.48524 301.84976 
L 768.49476 301.84976 
" clip-path="url(#pfd5b8fbebe)" style="fill: none; stroke: #b0b0b0; stroke-opacity: 0.15; stroke-width: 0.8; stroke-linecap: square"/>
     </g>
     <g id="line2d_14">
      <defs>
       <path id="m0b22c76c96" d="M 0 0 
L -3.5 0 
" style="stroke: #000000; stroke-width: 0.8"/>
      </defs>
      <g>
       <use xlink:href="#m0b22c76c96" x="37.48524" y="301.84976" style="stroke: #000000; stroke-width: 0.8"/>
      </g>
     </g>
     <g id="text_8">
      <!-- 45 -->
      <g transform="translate(18.27524 306.227416) scale(0.11 -0.11)">
       <defs>
        <path id="NotoSansCJKjp-Regular-35" d="M 1677 -83 
C 2464 -83 3213 499 3213 1523 
C 3213 2560 2573 3021 1798 3021 
C 1517 3021 1306 2950 1094 2835 
L 1216 4192 
L 2982 4192 
L 2982 4691 
L 704 4691 
L 550 2502 
L 864 2304 
C 1133 2483 1331 2579 1645 2579 
C 2234 2579 2618 2182 2618 1510 
C 2618 826 2176 403 1619 403 
C 1075 403 730 653 467 922 
L 173 538 
C 493 224 941 -83 1677 -83 
z
" transform="scale(0.015625)"/>
       </defs>
       <use xlink:href="#NotoSansCJKjp-Regular-34"/>
       <use xlink:href="#NotoSansCJKjp-Regular-35" transform="translate(55.499985 0)"/>
      </g>
     </g>
    </g>
    <g id="ytick_2">
     <g id="line2d_15">
      <path d="M 37.48524 240.470815 
L 768.49476 240.470815 
" clip-path="url(#pfd5b8fbebe)" style="fill: none; stroke: #b0b0b0; stroke-opacity: 0.15; stroke-width: 0.8; stroke-linecap: square"/>
     </g>
     <g id="line2d_16">
      <g>
       <use xlink:href="#m0b22c76c96" x="37.48524" y="240.470815" style="stroke: #000000; stroke-width: 0.8"/>
      </g>
     </g>
     <g id="text_9">
      <!-- 50 -->
      <g transform="translate(18.27524 244.848472) scale(0.11 -0.11)">
       <use xlink:href="#NotoSansCJKjp-Regular-35"/>
       <use xlink:href="#NotoSansCJKjp-Regular-30" transform="translate(55.499985 0)"/>
      </g>
     </g>
    </g>
    <g id="ytick_3">
     <g id="line2d_17">
      <path d="M 37.48524 179.091871 
L 768.49476 179.091871 
" clip-path="url(#pfd5b8fbebe)" style="fill: none; stroke: #b0b0b0; stroke-opacity: 0.15; stroke-width: 0.8; stroke-linecap: square"/>
     </g>
     <g id="line2d_18">
      <g>
       <use xlink:href="#m0b22c76c96" x="37.48524" y="179.091871" style="stroke: #000000; stroke-width: 0.8"/>
      </g>
     </g>
     <g id="text_10">
      <!-- 55 -->
      <g transform="translate(18.27524 183.469527) scale(0.11 -0.11)">
       <use xlink:href="#NotoSansCJKjp-Regular-35"/>
       <use xlink:href="#NotoSansCJKjp-Regular-35" transform="translate(55.499985 0)"/>
      </g>
     </g>
    </g>
    <g id="ytick_4">
     <g id="line2d_19">
      <path d="M 37.48524 117.712926 
L 768.49476 117.712926 
" clip-path="url(#pfd5b8fbebe)" style="fill: none; stroke: #b0b0b0; stroke-opacity: 0.15; stroke-width: 0.8; stroke-linecap: square"/>
     </g>
     <g id="line2d_20">
      <g>
       <use xlink:href="#m0b22c76c96" x="37.48524" y="117.712926" style="stroke: #000000; stroke-width: 0.8"/>
      </g>
     </g>
     <g id="text_11">
      <!-- 60 -->
      <g transform="translate(18.27524 122.090583) scale(0.11 -0.11)">
       <use xlink:href="#NotoSansCJKjp-Regular-36"/>
       <use xlink:href="#NotoSansCJKjp-Regular-30" transform="translate(55.499985 0)"/>
      </g>
     </g>
    </g>
    <g id="ytick_5">
     <g id="line2d_21">
      <path d="M 37.48524 56.333982 
L 768.49476 56.333982 
" clip-path="url(#pfd5b8fbebe)" style="fill: none; stroke: #b0b0b0; stroke-opacity: 0.15; stroke-width: 0.8; stroke-linecap: square"/>
     </g>
     <g id="line2d_22">
      <g>
       <use xlink:href="#m0b22c76c96" x="37.48524" y="56.333982" style="stroke: #000000; stroke-width: 0.8"/>
      </g>
     </g>
     <g id="text_12">
      <!-- 65 -->
      <g transform="translate(18.27524 60.711638) scale(0.11 -0.11)">
       <use xlink:href="#NotoSansCJKjp-Regular-36"/>
       <use xlink:href="#NotoSansCJKjp-Regular-35" transform="translate(55.499985 0)"/>
      </g>
     </g>
    </g>
    <g id="text_13">
     <!-- 最小費用 -->
     <g transform="translate(11.755553 182.678188) rotate(-90) scale(0.11 -0.11)">
      <defs>
       <path id="NotoSansCJKjp-Regular-6700" d="M 1600 4064 
L 4813 4064 
L 4813 3610 
L 1600 3610 
L 1600 4064 
z
M 1600 4832 
L 4813 4832 
L 4813 4384 
L 1600 4384 
L 1600 4832 
z
M 1139 5171 
L 1139 3270 
L 5293 3270 
L 5293 5171 
L 1139 5171 
z
M 2534 2509 
L 2534 2074 
L 1370 2074 
L 1370 2509 
L 2534 2509 
z
M 314 282 
L 358 -147 
L 2534 115 
L 2534 -512 
L 2995 -512 
L 2995 -109 
C 3091 -198 3200 -365 3251 -474 
C 3699 -320 4141 -96 4531 205 
C 4909 -115 5363 -358 5875 -506 
C 5939 -397 6061 -218 6163 -134 
C 5664 -6 5229 205 4858 486 
C 5280 883 5613 1389 5811 2010 
L 5517 2131 
L 5434 2112 
L 3219 2112 
L 3219 1722 
L 3776 1722 
L 3501 1638 
C 3674 1216 3910 832 4205 512 
C 3840 237 3418 32 2995 -90 
L 2995 2509 
L 6016 2509 
L 6016 2912 
L 371 2912 
L 371 2509 
L 928 2509 
L 928 339 
L 314 282 
z
M 3898 1722 
L 5222 1722 
C 5056 1363 4813 1050 4531 781 
C 4262 1050 4045 1370 3898 1722 
z
M 2534 1709 
L 2534 1261 
L 1370 1261 
L 1370 1709 
L 2534 1709 
z
M 2534 902 
L 2534 518 
L 1370 384 
L 1370 902 
L 2534 902 
z
" transform="scale(0.015625)"/>
       <path id="NotoSansCJKjp-Regular-5c0f" d="M 2970 5286 
L 2970 154 
C 2970 26 2918 -13 2790 -19 
C 2656 -26 2195 -32 1728 -13 
C 1805 -147 1894 -378 1926 -512 
C 2528 -518 2925 -506 3162 -422 
C 3392 -346 3488 -198 3488 154 
L 3488 5286 
L 2970 5286 
z
M 4512 3654 
C 5062 2733 5581 1536 5728 774 
L 6246 986 
C 6080 1754 5536 2931 4973 3827 
L 4512 3654 
z
M 1293 3782 
C 1133 2925 774 1818 205 1139 
C 339 1082 550 966 659 883 
C 1242 1594 1619 2752 1830 3693 
L 1293 3782 
z
" transform="scale(0.015625)"/>
       <path id="NotoSansCJKjp-Regular-8cbb" d="M 1632 1856 
L 4845 1856 
L 4845 1459 
L 1632 1459 
L 1632 1856 
z
M 1632 1158 
L 4845 1158 
L 4845 755 
L 1632 755 
L 1632 1158 
z
M 1632 2547 
L 4845 2547 
L 4845 2150 
L 1632 2150 
L 1632 2547 
z
M 3718 122 
C 4435 -83 5139 -333 5549 -518 
L 6061 -262 
C 5594 -70 4813 186 4102 378 
L 3718 122 
z
M 2246 384 
C 1779 154 1005 -51 346 -173 
C 454 -256 621 -435 691 -531 
C 1338 -371 2150 -102 2675 186 
L 2246 384 
z
M 3693 5376 
L 3693 5024 
L 2701 5024 
L 2701 5376 
L 2266 5376 
L 2266 5024 
L 691 5024 
L 691 4698 
L 2266 4698 
L 2266 4339 
L 979 4339 
C 877 4000 736 3584 602 3296 
L 1050 3270 
L 1082 3354 
L 1952 3354 
C 1690 3091 1210 2880 358 2720 
C 442 2630 550 2451 589 2342 
C 800 2387 992 2432 1165 2483 
L 1165 442 
L 5331 442 
L 5331 2714 
L 5485 2714 
C 5613 2720 5715 2758 5798 2835 
C 5901 2931 5939 3123 5984 3514 
C 5984 3571 5990 3674 5990 3674 
L 4147 3674 
L 4147 4019 
L 5587 4019 
L 5587 5024 
L 4147 5024 
L 4147 5376 
L 3693 5376 
z
M 1325 4019 
L 2253 4019 
C 2246 3898 2221 3782 2170 3674 
L 1203 3674 
L 1325 4019 
z
M 2694 4019 
L 3693 4019 
L 3693 3674 
L 2643 3674 
C 2669 3782 2688 3898 2694 4019 
z
M 2701 4698 
L 3693 4698 
L 3693 4339 
L 2701 4339 
L 2701 4698 
z
M 4147 4698 
L 5146 4698 
L 5146 4339 
L 4147 4339 
L 4147 4698 
z
M 5504 3354 
C 5485 3187 5459 3104 5421 3066 
C 5382 3027 5344 3021 5274 3021 
C 5203 3021 5024 3027 4826 3046 
C 4851 2995 4877 2925 4896 2854 
L 2035 2854 
C 2266 3002 2419 3168 2522 3354 
L 3693 3354 
L 3693 2874 
L 4147 2874 
L 4147 3354 
L 5504 3354 
z
" transform="scale(0.015625)"/>
       <path id="NotoSansCJKjp-Regular-7528" d="M 979 4928 
L 979 2605 
C 979 1702 915 570 205 -230 
C 314 -288 506 -448 576 -544 
C 1069 0 1286 736 1382 1453 
L 2989 1453 
L 2989 -454 
L 3475 -454 
L 3475 1453 
L 5203 1453 
L 5203 141 
C 5203 26 5158 -13 5030 -19 
C 4909 -26 4474 -32 4026 -13 
C 4090 -141 4166 -352 4192 -474 
C 4794 -480 5165 -474 5382 -397 
C 5600 -320 5677 -173 5677 141 
L 5677 4928 
L 979 4928 
z
M 1453 4467 
L 2989 4467 
L 2989 3437 
L 1453 3437 
L 1453 4467 
z
M 5203 4467 
L 5203 3437 
L 3475 3437 
L 3475 4467 
L 5203 4467 
z
M 1453 2982 
L 2989 2982 
L 2989 1907 
L 1427 1907 
C 1446 2150 1453 2387 1453 2605 
L 1453 2982 
z
M 5203 2982 
L 5203 1907 
L 3475 1907 
L 3475 2982 
L 5203 2982 
z
" transform="scale(0.015625)"/>
      </defs>
      <use xlink:href="#NotoSansCJKjp-Regular-6700"/>
      <use xlink:href="#NotoSansCJKjp-Regular-5c0f" transform="translate(99.999985 0)"/>
      <use xlink:href="#NotoSansCJKjp-Regular-8cbb" transform="translate(199.999969 0)"/>
      <use xlink:href="#NotoSansCJKjp-Regular-7528" transform="translate(299.999954 0)"/>
     </g>
    </g>
   </g>
   <g id="patch_3">
    <path d="M 37.48524 301.84976 
L 194.130137 301.84976 
L 194.130137 19.506615 
L 37.48524 19.506615 
z
" clip-path="url(#pfd5b8fbebe)" style="fill: #f4d8d2; opacity: 0.75; stroke: #f4d8d2; stroke-linejoin: miter"/>
   </g>
   <g id="line2d_23">
    <path d="M 194.130137 80.88556 
L 350.775034 80.88556 
" clip-path="url(#pfd5b8fbebe)" style="fill: none; stroke: #3c8c7c; stroke-width: 3; stroke-linecap: square"/>
   </g>
   <g id="line2d_24">
    <path d="M 350.775034 142.264504 
L 507.419931 142.264504 
" clip-path="url(#pfd5b8fbebe)" style="fill: none; stroke: #3c8c7c; stroke-width: 3; stroke-linecap: square"/>
   </g>
   <g id="line2d_25">
    <path d="M 507.419931 203.643449 
L 664.064829 203.643449 
" clip-path="url(#pfd5b8fbebe)" style="fill: none; stroke: #3c8c7c; stroke-width: 3; stroke-linecap: square"/>
   </g>
   <g id="line2d_26">
    <path d="M 664.064829 265.022393 
L 768.49476 265.022393 
" clip-path="url(#pfd5b8fbebe)" style="fill: none; stroke: #3c8c7c; stroke-width: 3; stroke-linecap: square"/>
   </g>
   <g id="patch_4">
    <path d="M 37.48524 301.84976 
L 37.48524 19.506615 
" style="fill: none; stroke: #000000; stroke-width: 0.8; stroke-linejoin: miter; stroke-linecap: square"/>
   </g>
   <g id="patch_5">
    <path d="M 768.49476 301.84976 
L 768.49476 19.506615 
" style="fill: none; stroke: #000000; stroke-width: 0.8; stroke-linejoin: miter; stroke-linecap: square"/>
   </g>
   <g id="patch_6">
    <path d="M 37.48524 301.84976 
L 768.49476 301.84976 
" style="fill: none; stroke: #000000; stroke-width: 0.8; stroke-linejoin: miter; stroke-linecap: square"/>
   </g>
   <g id="patch_7">
    <path d="M 37.48524 19.506615 
L 768.49476 19.506615 
" style="fill: none; stroke: #000000; stroke-width: 0.8; stroke-linejoin: miter; stroke-linecap: square"/>
   </g>
   <g id="text_14">
    <!-- 実行不能 -->
    <g style="fill: #a65545" transform="translate(91.807689 175.387996) scale(0.12 -0.12)">
     <defs>
      <path id="NotoSansCJKjp-Regular-5b9f" d="M 2938 4109 
L 2938 3571 
L 1037 3571 
L 1037 3168 
L 2938 3168 
L 2938 2592 
L 1139 2592 
L 1139 2189 
L 2925 2189 
C 2912 1990 2880 1786 2803 1587 
L 397 1587 
L 397 1158 
L 2586 1158 
C 2246 678 1594 224 333 -122 
C 435 -224 576 -410 627 -512 
C 2099 -70 2810 525 3142 1158 
L 3200 1158 
C 3686 237 4557 -301 5818 -525 
C 5882 -397 6010 -205 6112 -102 
C 4992 51 4160 467 3706 1158 
L 6035 1158 
L 6035 1587 
L 3315 1587 
C 3366 1786 3398 1990 3411 2189 
L 5325 2189 
L 5325 2592 
L 3424 2592 
L 3424 3168 
L 5408 3168 
L 5408 3507 
L 5901 3507 
L 5901 4742 
L 3437 4742 
L 3437 5376 
L 2950 5376 
L 2950 4742 
L 493 4742 
L 493 3507 
L 966 3507 
L 966 4314 
L 5408 4314 
L 5408 3571 
L 3424 3571 
L 3424 4109 
L 2938 4109 
z
" transform="scale(0.015625)"/>
      <path id="NotoSansCJKjp-Regular-884c" d="M 2784 4992 
L 2784 4531 
L 5933 4531 
L 5933 4992 
L 2784 4992 
z
M 1709 5382 
C 1382 4915 762 4346 224 3981 
C 307 3891 442 3706 506 3597 
C 1082 4006 1741 4634 2170 5190 
L 1709 5382 
z
M 2502 3226 
L 2502 2765 
L 4659 2765 
L 4659 109 
C 4659 6 4614 -26 4493 -32 
C 4378 -38 3942 -38 3488 -19 
C 3558 -160 3629 -358 3648 -493 
C 4275 -493 4640 -493 4858 -422 
C 5069 -339 5146 -192 5146 102 
L 5146 2765 
L 6112 2765 
L 6112 3226 
L 2502 3226 
z
M 1965 4006 
C 1523 3277 819 2534 160 2061 
C 256 1965 429 1754 499 1658 
C 736 1850 986 2080 1229 2330 
L 1229 -531 
L 1702 -531 
L 1702 2854 
C 1971 3174 2214 3507 2419 3840 
L 1965 4006 
z
" transform="scale(0.015625)"/>
      <path id="NotoSansCJKjp-Regular-4e0d" d="M 3578 3059 
C 4339 2547 5299 1792 5754 1299 
L 6144 1670 
C 5664 2163 4691 2880 3936 3366 
L 3578 3059 
z
M 442 4928 
L 442 4435 
L 3290 4435 
C 2656 3341 1555 2259 282 1632 
C 384 1523 531 1331 608 1210 
C 1498 1677 2291 2336 2938 3078 
L 2938 -499 
L 3456 -499 
L 3456 3738 
C 3622 3962 3770 4198 3904 4435 
L 5958 4435 
L 5958 4928 
L 442 4928 
z
" transform="scale(0.015625)"/>
      <path id="NotoSansCJKjp-Regular-80fd" d="M 2131 4774 
C 2278 4576 2432 4339 2560 4109 
L 1248 4058 
C 1446 4422 1651 4864 1824 5261 
L 1331 5382 
C 1197 4979 966 4442 742 4038 
L 256 4019 
L 294 3552 
C 960 3590 1882 3635 2784 3693 
C 2854 3552 2912 3424 2950 3309 
L 3366 3494 
C 3226 3891 2867 4486 2528 4928 
L 2131 4774 
z
M 2451 2688 
L 2451 2138 
L 1088 2138 
L 1088 2688 
L 2451 2688 
z
M 640 3098 
L 640 -506 
L 1088 -506 
L 1088 800 
L 2451 800 
L 2451 51 
C 2451 -32 2432 -58 2349 -58 
C 2253 -64 1984 -64 1683 -51 
C 1747 -179 1818 -365 1843 -493 
C 2246 -493 2522 -486 2701 -416 
C 2874 -339 2925 -205 2925 45 
L 2925 3098 
L 640 3098 
z
M 1088 1760 
L 2451 1760 
L 2451 1178 
L 1088 1178 
L 1088 1760 
z
M 5491 4896 
C 5126 4704 4550 4474 4006 4288 
L 4006 5363 
L 3526 5363 
L 3526 3238 
C 3526 2707 3686 2566 4307 2566 
C 4429 2566 5267 2566 5408 2566 
C 5920 2566 6061 2771 6118 3558 
C 5984 3590 5786 3661 5683 3744 
C 5658 3110 5613 3002 5363 3002 
C 5184 3002 4480 3002 4352 3002 
C 4058 3002 4006 3040 4006 3245 
L 4006 3904 
C 4621 4083 5306 4307 5811 4538 
L 5491 4896 
z
M 5568 2042 
C 5197 1805 4582 1555 4000 1363 
L 4000 2387 
L 3526 2387 
L 3526 224 
C 3526 -314 3693 -454 4320 -454 
C 4454 -454 5318 -454 5459 -454 
C 5997 -454 6138 -224 6195 634 
C 6061 666 5875 742 5760 819 
C 5734 96 5690 -26 5421 -26 
C 5229 -26 4506 -26 4365 -26 
C 4058 -26 4000 13 4000 224 
L 4000 966 
C 4646 1146 5382 1395 5882 1683 
L 5568 2042 
z
" transform="scale(0.015625)"/>
     </defs>
     <use xlink:href="#NotoSansCJKjp-Regular-5b9f"/>
     <use xlink:href="#NotoSansCJKjp-Regular-884c" transform="translate(99.999985 0)"/>
     <use xlink:href="#NotoSansCJKjp-Regular-4e0d" transform="translate(199.999969 0)"/>
     <use xlink:href="#NotoSansCJKjp-Regular-80fd" transform="translate(299.999954 0)"/>
    </g>
    <!-- 排出の下限は18 -->
    <g style="fill: #a65545" transform="translate(73.147689 189.598246) scale(0.12 -0.12)">
     <defs>
      <path id="NotoSansCJKjp-Regular-306e" d="M 3046 4109 
C 2976 3520 2848 2912 2688 2381 
C 2362 1299 2022 870 1722 870 
C 1434 870 1062 1229 1062 2035 
C 1062 2906 1818 3955 3046 4109 
z
M 3578 4122 
C 4666 4026 5286 3226 5286 2259 
C 5286 1152 4480 544 3661 358 
C 3514 326 3315 294 3110 275 
L 3411 -198 
C 4928 0 5811 896 5811 2240 
C 5811 3539 4858 4595 3360 4595 
C 1798 4595 563 3379 563 1990 
C 563 934 1133 282 1702 282 
C 2298 282 2803 954 3194 2272 
C 3373 2867 3494 3520 3578 4122 
z
" transform="scale(0.015625)"/>
      <path id="NotoSansCJKjp-Regular-4e0b" d="M 352 4902 
L 352 4422 
L 2822 4422 
L 2822 -506 
L 3328 -506 
L 3328 2886 
C 4064 2490 4922 1958 5370 1600 
L 5709 2035 
C 5197 2426 4179 3002 3418 3373 
L 3328 3270 
L 3328 4422 
L 6054 4422 
L 6054 4902 
L 352 4902 
z
" transform="scale(0.015625)"/>
      <path id="NotoSansCJKjp-Regular-306f" d="M 1632 4890 
L 1069 4934 
C 1069 4800 1050 4627 1030 4480 
C 947 3949 736 2726 736 1786 
C 736 922 851 218 979 -237 
L 1427 -205 
C 1421 -134 1414 -45 1414 19 
C 1408 96 1421 218 1440 307 
C 1504 621 1741 1274 1894 1722 
L 1632 1926 
C 1523 1664 1370 1274 1267 986 
C 1222 1299 1203 1568 1203 1875 
C 1203 2592 1395 3859 1523 4454 
C 1542 4570 1594 4781 1632 4890 
z
M 4326 1184 
L 4333 960 
C 4333 538 4173 262 3635 262 
C 3174 262 2854 442 2854 768 
C 2854 1082 3194 1286 3674 1286 
C 3904 1286 4122 1248 4326 1184 
z
M 4794 4928 
L 4218 4928 
C 4230 4819 4243 4646 4243 4538 
L 4243 3744 
L 3642 3731 
C 3258 3731 2918 3750 2554 3782 
L 2554 3302 
C 2931 3277 3264 3258 3629 3258 
L 4243 3270 
C 4250 2746 4288 2118 4307 1626 
C 4122 1664 3923 1683 3712 1683 
C 2874 1683 2394 1254 2394 717 
C 2394 141 2867 -198 3725 -198 
C 4589 -198 4832 307 4832 832 
L 4832 966 
C 5158 781 5478 525 5798 224 
L 6080 653 
C 5747 954 5331 1274 4813 1478 
C 4787 2016 4742 2656 4736 3302 
C 5120 3328 5491 3366 5843 3424 
L 5843 3917 
C 5504 3853 5126 3802 4736 3770 
C 4742 4070 4749 4371 4755 4544 
C 4762 4672 4774 4800 4794 4928 
z
" transform="scale(0.015625)"/>
     </defs>
     <use xlink:href="#NotoSansCJKjp-Regular-6392"/>
     <use xlink:href="#NotoSansCJKjp-Regular-51fa" transform="translate(99.999985 0)"/>
     <use xlink:href="#NotoSansCJKjp-Regular-306e" transform="translate(199.999969 0)"/>
     <use xlink:href="#NotoSansCJKjp-Regular-4e0b" transform="translate(299.999954 0)"/>
     <use xlink:href="#NotoSansCJKjp-Regular-9650" transform="translate(399.999939 0)"/>
     <use xlink:href="#NotoSansCJKjp-Regular-306f" transform="translate(499.999924 0)"/>
     <use xlink:href="#NotoSansCJKjp-Regular-31" transform="translate(599.999908 0)"/>
     <use xlink:href="#NotoSansCJKjp-Regular-38" transform="translate(655.499893 0)"/>
    </g>
   </g>
   <g id="text_15">
    <!-- X=0, Y=9 -->
    <g style="fill: #276d61" transform="translate(202.130137 55.859497) scale(0.11 -0.11)">
     <defs>
      <path id="NotoSansCJKjp-Regular-58" d="M 109 0 
L 736 0 
L 1408 1267 
C 1530 1504 1651 1741 1786 2029 
L 1811 2029 
C 1965 1741 2093 1504 2214 1267 
L 2912 0 
L 3565 0 
L 2189 2394 
L 3469 4691 
L 2848 4691 
L 2221 3494 
C 2106 3277 2016 3078 1888 2803 
L 1862 2803 
C 1709 3078 1613 3277 1491 3494 
L 851 4691 
L 198 4691 
L 1478 2426 
L 109 0 
z
" transform="scale(0.015625)"/>
      <path id="NotoSansCJKjp-Regular-3d" d="M 243 2912 
L 3315 2912 
L 3315 3347 
L 243 3347 
L 243 2912 
z
M 243 1376 
L 3315 1376 
L 3315 1811 
L 243 1811 
L 243 1376 
z
" transform="scale(0.015625)"/>
      <path id="NotoSansCJKjp-Regular-2c" d="M 480 -1216 
C 1056 -973 1414 -493 1414 122 
C 1414 550 1229 806 922 806 
C 685 806 480 653 480 397 
C 480 141 678 -13 909 -13 
L 979 -6 
C 973 -390 736 -698 339 -870 
L 480 -1216 
z
" transform="scale(0.015625)"/>
      <path id="NotoSansCJKjp-Regular-59" d="M 1402 0 
L 1990 0 
L 1990 1818 
L 3405 4691 
L 2790 4691 
L 2189 3366 
C 2042 3021 1882 2688 1715 2336 
L 1690 2336 
C 1523 2688 1382 3021 1229 3366 
L 621 4691 
L -6 4691 
L 1402 1818 
L 1402 0 
z
" transform="scale(0.015625)"/>
      <path id="NotoSansCJKjp-Regular-39" d="M 1504 -83 
C 2381 -83 3206 646 3206 2547 
C 3206 4038 2528 4774 1626 4774 
C 896 4774 282 4166 282 3251 
C 282 2285 794 1779 1574 1779 
C 1965 1779 2368 2003 2656 2349 
C 2611 896 2086 403 1485 403 
C 1178 403 896 538 691 762 
L 371 397 
C 634 122 992 -83 1504 -83 
z
M 2650 2842 
C 2336 2394 1984 2214 1670 2214 
C 1114 2214 832 2624 832 3251 
C 832 3898 1178 4320 1632 4320 
C 2227 4320 2586 3808 2650 2842 
z
" transform="scale(0.015625)"/>
     </defs>
     <use xlink:href="#NotoSansCJKjp-Regular-58"/>
     <use xlink:href="#NotoSansCJKjp-Regular-3d" transform="translate(57.299988 0)"/>
     <use xlink:href="#NotoSansCJKjp-Regular-30" transform="translate(112.799973 0)"/>
     <use xlink:href="#NotoSansCJKjp-Regular-2c" transform="translate(168.299957 0)"/>
     <use xlink:href="#NotoSansCJKjp-Regular-20" transform="translate(196.099945 0)"/>
     <use xlink:href="#NotoSansCJKjp-Regular-59" transform="translate(218.499939 0)"/>
     <use xlink:href="#NotoSansCJKjp-Regular-3d" transform="translate(271.59993 0)"/>
     <use xlink:href="#NotoSansCJKjp-Regular-39" transform="translate(327.099915 0)"/>
    </g>
    <!-- 費用63 -->
    <g style="fill: #276d61" transform="translate(202.130137 68.88556) scale(0.11 -0.11)">
     <use xlink:href="#NotoSansCJKjp-Regular-8cbb"/>
     <use xlink:href="#NotoSansCJKjp-Regular-7528" transform="translate(99.999985 0)"/>
     <use xlink:href="#NotoSansCJKjp-Regular-36" transform="translate(199.999969 0)"/>
     <use xlink:href="#NotoSansCJKjp-Regular-33" transform="translate(255.499954 0)"/>
    </g>
   </g>
   <g id="text_16">
    <!-- X=2, Y=6 -->
    <g style="fill: #276d61" transform="translate(358.775034 117.238442) scale(0.11 -0.11)">
     <use xlink:href="#NotoSansCJKjp-Regular-58"/>
     <use xlink:href="#NotoSansCJKjp-Regular-3d" transform="translate(57.299988 0)"/>
     <use xlink:href="#NotoSansCJKjp-Regular-32" transform="translate(112.799973 0)"/>
     <use xlink:href="#NotoSansCJKjp-Regular-2c" transform="translate(168.299957 0)"/>
     <use xlink:href="#NotoSansCJKjp-Regular-20" transform="translate(196.099945 0)"/>
     <use xlink:href="#NotoSansCJKjp-Regular-59" transform="translate(218.499939 0)"/>
     <use xlink:href="#NotoSansCJKjp-Regular-3d" transform="translate(271.59993 0)"/>
     <use xlink:href="#NotoSansCJKjp-Regular-36" transform="translate(327.099915 0)"/>
    </g>
    <!-- 費用58 -->
    <g style="fill: #276d61" transform="translate(358.775034 130.264504) scale(0.11 -0.11)">
     <use xlink:href="#NotoSansCJKjp-Regular-8cbb"/>
     <use xlink:href="#NotoSansCJKjp-Regular-7528" transform="translate(99.999985 0)"/>
     <use xlink:href="#NotoSansCJKjp-Regular-35" transform="translate(199.999969 0)"/>
     <use xlink:href="#NotoSansCJKjp-Regular-38" transform="translate(255.499954 0)"/>
    </g>
   </g>
   <g id="text_17">
    <!-- X=4, Y=3 -->
    <g style="fill: #276d61" transform="translate(515.419931 178.617386) scale(0.11 -0.11)">
     <use xlink:href="#NotoSansCJKjp-Regular-58"/>
     <use xlink:href="#NotoSansCJKjp-Regular-3d" transform="translate(57.299988 0)"/>
     <use xlink:href="#NotoSansCJKjp-Regular-34" transform="translate(112.799973 0)"/>
     <use xlink:href="#NotoSansCJKjp-Regular-2c" transform="translate(168.299957 0)"/>
     <use xlink:href="#NotoSansCJKjp-Regular-20" transform="translate(196.099945 0)"/>
     <use xlink:href="#NotoSansCJKjp-Regular-59" transform="translate(218.499939 0)"/>
     <use xlink:href="#NotoSansCJKjp-Regular-3d" transform="translate(271.59993 0)"/>
     <use xlink:href="#NotoSansCJKjp-Regular-33" transform="translate(327.099915 0)"/>
    </g>
    <!-- 費用53 -->
    <g style="fill: #276d61" transform="translate(515.419931 191.643449) scale(0.11 -0.11)">
     <use xlink:href="#NotoSansCJKjp-Regular-8cbb"/>
     <use xlink:href="#NotoSansCJKjp-Regular-7528" transform="translate(99.999985 0)"/>
     <use xlink:href="#NotoSansCJKjp-Regular-35" transform="translate(199.999969 0)"/>
     <use xlink:href="#NotoSansCJKjp-Regular-33" transform="translate(255.499954 0)"/>
    </g>
   </g>
   <g id="text_18">
    <!-- X=6, Y=0 -->
    <g style="fill: #276d61" transform="translate(672.064829 239.996331) scale(0.11 -0.11)">
     <use xlink:href="#NotoSansCJKjp-Regular-58"/>
     <use xlink:href="#NotoSansCJKjp-Regular-3d" transform="translate(57.299988 0)"/>
     <use xlink:href="#NotoSansCJKjp-Regular-36" transform="translate(112.799973 0)"/>
     <use xlink:href="#NotoSansCJKjp-Regular-2c" transform="translate(168.299957 0)"/>
     <use xlink:href="#NotoSansCJKjp-Regular-20" transform="translate(196.099945 0)"/>
     <use xlink:href="#NotoSansCJKjp-Regular-59" transform="translate(218.499939 0)"/>
     <use xlink:href="#NotoSansCJKjp-Regular-3d" transform="translate(271.59993 0)"/>
     <use xlink:href="#NotoSansCJKjp-Regular-30" transform="translate(327.099915 0)"/>
    </g>
    <!-- 費用48 -->
    <g style="fill: #276d61" transform="translate(672.064829 253.022393) scale(0.11 -0.11)">
     <use xlink:href="#NotoSansCJKjp-Regular-8cbb"/>
     <use xlink:href="#NotoSansCJKjp-Regular-7528" transform="translate(99.999985 0)"/>
     <use xlink:href="#NotoSansCJKjp-Regular-34" transform="translate(199.999969 0)"/>
     <use xlink:href="#NotoSansCJKjp-Regular-38" transform="translate(255.499954 0)"/>
    </g>
   </g>
   <g id="patch_8">
    <path d="M 567.970109 104.838188 
Q 537.251247 123.0408 507.494236 140.673463 
" style="fill: none; stroke: #b9792e; stroke-linecap: round"/>
    <path d="M 512.401094 140.323111 
L 507.494236 140.673463 
L 510.158069 136.537765 
" style="fill: none; stroke: #b9792e; stroke-linecap: round"/>
   </g>
   <g id="text_19">
    <!-- ε: 30 → 29.9 -->
    <g style="fill: #a36a28" transform="translate(559.634897 86.27318) scale(0.11 -0.11)">
     <defs>
      <path id="NotoSansCJKjp-Regular-3a" d="M 890 2496 
C 1120 2496 1312 2675 1312 2944 
C 1312 3206 1120 3392 890 3392 
C 653 3392 467 3206 467 2944 
C 467 2675 653 2496 890 2496 
z
M 890 -83 
C 1120 -83 1312 96 1312 358 
C 1312 627 1120 806 890 806 
C 653 806 467 627 467 358 
C 467 96 653 -83 890 -83 
z
" transform="scale(0.015625)"/>
      <path id="NotoSansCJKjp-Regular-2192" d="M 5190 2650 
L 256 2650 
L 256 2214 
L 5190 2214 
C 4864 1965 4442 1562 4154 1165 
L 4538 941 
C 4966 1504 5606 2067 6176 2432 
C 5606 2797 4966 3360 4538 3923 
L 4154 3699 
C 4442 3302 4864 2899 5190 2650 
z
" transform="scale(0.015625)"/>
      <path id="NotoSansCJKjp-Regular-2e" d="M 890 -83 
C 1120 -83 1312 96 1312 358 
C 1312 627 1120 806 890 806 
C 653 806 467 627 467 358 
C 467 96 653 -83 890 -83 
z
" transform="scale(0.015625)"/>
     </defs>
     <use xlink:href="#NotoSansCJKjp-Regular-3b5"/>
     <use xlink:href="#NotoSansCJKjp-Regular-3a" transform="translate(50.099991 0)"/>
     <use xlink:href="#NotoSansCJKjp-Regular-20" transform="translate(77.899979 0)"/>
     <use xlink:href="#NotoSansCJKjp-Regular-33" transform="translate(100.299973 0)"/>
     <use xlink:href="#NotoSansCJKjp-Regular-30" transform="translate(155.799957 0)"/>
     <use xlink:href="#NotoSansCJKjp-Regular-20" transform="translate(211.299942 0)"/>
     <use xlink:href="#NotoSansCJKjp-Regular-2192" transform="translate(233.699936 0)"/>
     <use xlink:href="#NotoSansCJKjp-Regular-20" transform="translate(333.699921 0)"/>
     <use xlink:href="#NotoSansCJKjp-Regular-32" transform="translate(356.099915 0)"/>
     <use xlink:href="#NotoSansCJKjp-Regular-39" transform="translate(411.599899 0)"/>
     <use xlink:href="#NotoSansCJKjp-Regular-2e" transform="translate(467.099884 0)"/>
     <use xlink:href="#NotoSansCJKjp-Regular-39" transform="translate(494.899872 0)"/>
    </g>
    <!-- 費用: 53 → 58 -->
    <g style="fill: #a36a28" transform="translate(559.634897 99.299243) scale(0.11 -0.11)">
     <use xlink:href="#NotoSansCJKjp-Regular-8cbb"/>
     <use xlink:href="#NotoSansCJKjp-Regular-7528" transform="translate(99.999985 0)"/>
     <use xlink:href="#NotoSansCJKjp-Regular-3a" transform="translate(199.999969 0)"/>
     <use xlink:href="#NotoSansCJKjp-Regular-20" transform="translate(227.799957 0)"/>
     <use xlink:href="#NotoSansCJKjp-Regular-35" transform="translate(250.199951 0)"/>
     <use xlink:href="#NotoSansCJKjp-Regular-33" transform="translate(305.699936 0)"/>
     <use xlink:href="#NotoSansCJKjp-Regular-20" transform="translate(361.199921 0)"/>
     <use xlink:href="#NotoSansCJKjp-Regular-2192" transform="translate(383.599915 0)"/>
     <use xlink:href="#NotoSansCJKjp-Regular-20" transform="translate(483.599899 0)"/>
     <use xlink:href="#NotoSansCJKjp-Regular-35" transform="translate(505.999893 0)"/>
     <use xlink:href="#NotoSansCJKjp-Regular-38" transform="translate(561.499878 0)"/>
    </g>
   </g>
   <g id="text_20">
    <!-- 上限を少し変えても、整数計画の選択は滑らかに動かない -->
    <g transform="translate(231.39 13.506615) scale(0.132 -0.132)">
     <defs>
      <path id="NotoSansCJKjp-Regular-3092" d="M 5645 2822 
L 5434 3302 
C 5254 3206 5101 3136 4909 3053 
C 4576 2899 4186 2746 3744 2534 
C 3648 2906 3309 3110 2893 3110 
C 2618 3110 2246 3027 2003 2874 
C 2221 3162 2432 3526 2579 3866 
C 3277 3891 4070 3942 4704 4045 
L 4710 4518 
C 4109 4410 3411 4352 2758 4320 
C 2854 4621 2906 4870 2944 5062 
L 2419 5107 
C 2406 4870 2349 4582 2259 4307 
L 1837 4301 
C 1542 4301 1094 4326 755 4371 
L 755 3891 
C 1107 3866 1530 3853 1805 3853 
L 2086 3853 
C 1843 3334 1414 2675 608 1894 
L 1043 1574 
C 1261 1830 1440 2067 1626 2240 
C 1914 2509 2323 2707 2726 2707 
C 3014 2707 3245 2586 3309 2310 
C 2560 1920 1798 1446 1798 691 
C 1798 -90 2534 -288 3450 -288 
C 4006 -288 4717 -237 5203 -173 
L 5216 339 
C 4653 243 3968 186 3469 186 
C 2810 186 2310 262 2310 762 
C 2310 1184 2726 1523 3322 1837 
C 3322 1504 3315 1088 3302 838 
L 3795 838 
L 3776 2067 
C 4262 2298 4717 2483 5075 2618 
C 5248 2688 5478 2778 5645 2822 
z
" transform="scale(0.015625)"/>
      <path id="NotoSansCJKjp-Regular-5c11" d="M 2950 5370 
L 2950 2125 
C 2950 2022 2918 1997 2810 1997 
C 2694 1997 2304 1990 1875 1997 
C 1952 1862 2029 1651 2054 1510 
C 2592 1510 2944 1517 3155 1600 
C 3373 1677 3443 1824 3443 2118 
L 3443 5370 
L 2950 5370 
z
M 4339 4403 
C 4890 3738 5478 2835 5696 2253 
L 6176 2515 
C 5933 3110 5331 3981 4774 4627 
L 4339 4403 
z
M 4762 2656 
C 4211 1011 2989 243 723 -51 
C 819 -179 928 -378 979 -525 
C 3354 -160 4659 698 5261 2502 
L 4762 2656 
z
M 1536 4563 
C 1299 3859 806 3002 243 2464 
C 371 2394 563 2266 672 2176 
C 1242 2758 1747 3661 2061 4435 
L 1536 4563 
z
" transform="scale(0.015625)"/>
      <path id="NotoSansCJKjp-Regular-3057" d="M 2176 4986 
L 1530 4992 
C 1568 4806 1581 4576 1581 4339 
C 1581 3667 1517 2048 1517 1101 
C 1517 58 2150 -326 3072 -326 
C 4480 -326 5306 480 5747 1088 
L 5382 1523 
C 4922 858 4262 198 3091 198 
C 2483 198 2042 448 2042 1152 
C 2042 2106 2086 3616 2118 4339 
C 2125 4550 2144 4774 2176 4986 
z
" transform="scale(0.015625)"/>
      <path id="NotoSansCJKjp-Regular-5909" d="M 4608 3770 
C 5030 3386 5510 2842 5728 2490 
L 6131 2746 
C 5901 3091 5402 3622 4986 3987 
L 4608 3770 
z
M 1370 3955 
C 1171 3552 736 3098 288 2829 
C 390 2765 544 2630 627 2547 
C 1094 2848 1555 3347 1830 3834 
L 1370 3955 
z
M 2950 5376 
L 2950 4736 
L 403 4736 
L 403 4288 
L 2470 4288 
L 2470 4262 
C 2470 3725 2387 2995 1466 2458 
C 1568 2381 1734 2227 1811 2125 
C 2822 2746 2925 3597 2925 4250 
L 2925 4288 
L 3814 4288 
L 3814 2886 
C 3814 2816 3795 2797 3706 2790 
C 3622 2790 3341 2790 3027 2797 
C 3085 2669 3142 2496 3162 2368 
C 3584 2368 3885 2368 4058 2438 
C 4237 2515 4275 2637 4275 2874 
L 4275 4288 
L 6016 4288 
L 6016 4736 
L 3443 4736 
L 3443 5376 
L 2950 5376 
z
M 2502 2483 
C 2144 1978 1440 1421 454 1037 
C 557 966 698 800 762 685 
C 1184 870 1555 1075 1882 1306 
C 2125 986 2419 710 2758 480 
C 2035 186 1178 0 294 -102 
C 384 -205 493 -410 538 -531 
C 1491 -397 2419 -166 3213 205 
C 3942 -179 4838 -416 5869 -525 
C 5933 -390 6048 -192 6150 -77 
C 5222 0 4397 179 3712 467 
C 4288 806 4768 1248 5088 1805 
L 4774 2016 
L 4685 1997 
L 2688 1997 
C 2810 2125 2918 2253 3014 2387 
L 2502 2483 
z
M 2221 1562 
L 2266 1600 
L 4371 1600 
C 4090 1235 3699 941 3238 698 
C 2816 934 2477 1222 2221 1562 
z
" transform="scale(0.015625)"/>
      <path id="NotoSansCJKjp-Regular-3048" d="M 1997 5050 
L 1914 4582 
C 2694 4442 3814 4294 4454 4237 
L 4525 4710 
C 3917 4749 2694 4896 1997 5050 
z
M 4653 3219 
L 4346 3565 
C 4288 3539 4147 3507 4038 3494 
C 3558 3437 2067 3334 1702 3328 
C 1498 3322 1306 3328 1158 3341 
L 1203 2778 
C 1344 2803 1510 2822 1722 2842 
C 2112 2874 3187 2963 3693 2995 
C 3059 2362 1318 621 1062 358 
C 934 237 819 141 742 70 
L 1229 -269 
C 1587 192 2285 928 2528 1158 
C 2675 1299 2822 1389 3002 1389 
C 3174 1389 3315 1274 3392 1050 
C 3450 864 3546 486 3610 294 
C 3744 -128 4064 -250 4576 -250 
C 4922 -250 5510 -198 5779 -154 
L 5811 384 
C 5510 307 5024 256 4602 256 
C 4275 256 4122 358 4045 602 
C 3981 813 3891 1133 3834 1318 
C 3744 1581 3597 1754 3347 1779 
C 3277 1792 3162 1798 3098 1792 
C 3334 2035 4058 2707 4301 2931 
C 4378 3002 4531 3136 4653 3219 
z
" transform="scale(0.015625)"/>
      <path id="NotoSansCJKjp-Regular-3066" d="M 544 4250 
L 602 3693 
C 1293 3840 2925 3994 3610 4070 
C 3021 3718 2413 2906 2413 1907 
C 2413 480 3763 -154 4947 -198 
L 5133 333 
C 4090 371 2925 768 2925 2022 
C 2925 2778 3482 3750 4390 4045 
C 4717 4141 5280 4147 5645 4147 
L 5645 4659 
C 5216 4640 4614 4608 3917 4544 
C 2739 4448 1530 4326 1114 4282 
C 992 4269 787 4256 544 4250 
z
" transform="scale(0.015625)"/>
      <path id="NotoSansCJKjp-Regular-3082" d="M 627 2592 
L 602 2099 
C 992 1978 1459 1907 1939 1869 
C 1907 1568 1888 1312 1888 1133 
C 1888 83 2586 -294 3456 -294 
C 4723 -294 5568 282 5568 1235 
C 5568 1786 5357 2227 4915 2714 
L 4352 2598 
C 4819 2202 5050 1722 5050 1293 
C 5050 634 4429 205 3456 205 
C 2726 205 2381 589 2381 1210 
C 2381 1363 2394 1587 2419 1843 
L 2650 1843 
C 3085 1843 3482 1862 3904 1907 
L 3917 2394 
C 3469 2330 3021 2310 2586 2310 
L 2464 2310 
L 2605 3469 
L 2650 3469 
C 3168 3469 3539 3488 3949 3526 
L 3962 4006 
C 3590 3949 3155 3923 2662 3923 
L 2752 4582 
C 2771 4723 2790 4858 2835 5030 
L 2259 5069 
C 2272 4947 2272 4832 2253 4614 
L 2182 3942 
C 1709 3974 1184 4051 781 4179 
L 755 3712 
C 1158 3610 1664 3526 2131 3488 
L 1990 2330 
C 1536 2368 1050 2445 627 2592 
z
" transform="scale(0.015625)"/>
      <path id="NotoSansCJKjp-Regular-3001" d="M 1747 -358 
L 2182 13 
C 1786 480 1210 1062 749 1434 
L 333 1069 
C 787 698 1338 147 1747 -358 
z
" transform="scale(0.015625)"/>
      <path id="NotoSansCJKjp-Regular-6574" d="M 1357 1139 
L 1357 32 
L 301 32 
L 301 -371 
L 6118 -371 
L 6118 32 
L 3430 32 
L 3430 563 
L 5274 563 
L 5274 934 
L 3430 934 
L 3430 1427 
L 5696 1427 
L 5696 1824 
L 730 1824 
L 730 1427 
L 2957 1427 
L 2957 32 
L 1818 32 
L 1818 1139 
L 1357 1139 
z
M 4109 5376 
C 3930 4742 3597 4154 3162 3770 
L 3162 4282 
L 2054 4282 
L 2054 4608 
L 3315 4608 
L 3315 4960 
L 2054 4960 
L 2054 5376 
L 1626 5376 
L 1626 4960 
L 365 4960 
L 365 4608 
L 1626 4608 
L 1626 4282 
L 550 4282 
L 550 3110 
L 1440 3110 
C 1126 2790 646 2470 256 2304 
C 346 2234 474 2093 538 1997 
C 883 2176 1306 2496 1626 2822 
L 1626 1997 
L 2054 1997 
L 2054 2784 
C 2368 2611 2790 2362 2970 2227 
L 3206 2547 
C 3027 2650 2349 2989 2086 3110 
L 3162 3110 
L 3162 3725 
C 3264 3642 3411 3494 3462 3411 
C 3603 3546 3744 3699 3866 3878 
C 4000 3590 4186 3296 4416 3021 
C 4064 2714 3629 2490 3104 2330 
C 3200 2253 3341 2074 3392 1978 
C 3904 2163 4339 2400 4704 2714 
C 5030 2406 5434 2138 5926 1958 
C 5990 2067 6112 2246 6202 2336 
C 5715 2483 5318 2720 4998 3002 
C 5299 3347 5530 3757 5677 4269 
L 6093 4269 
L 6093 4659 
L 4314 4659 
C 4403 4858 4480 5069 4544 5280 
L 4109 5376 
z
M 947 3962 
L 1626 3962 
L 1626 3430 
L 947 3430 
L 947 3962 
z
M 2054 3962 
L 2752 3962 
L 2752 3430 
L 2054 3430 
L 2054 3962 
z
M 4122 4269 
L 5216 4269 
C 5101 3891 4928 3571 4698 3302 
C 4435 3603 4243 3930 4109 4250 
L 4122 4269 
z
" transform="scale(0.015625)"/>
      <path id="NotoSansCJKjp-Regular-6570" d="M 2803 5254 
C 2688 4998 2483 4627 2317 4403 
L 2643 4243 
C 2816 4454 3027 4781 3219 5075 
L 2803 5254 
z
M 531 5075 
C 704 4806 870 4454 928 4230 
L 1312 4397 
C 1248 4627 1075 4973 890 5222 
L 531 5075 
z
M 4026 5382 
C 3846 4243 3507 3162 2970 2490 
C 3078 2413 3283 2246 3360 2163 
C 3533 2394 3693 2669 3827 2970 
C 3974 2310 4160 1709 4410 1184 
C 4090 698 3667 314 3110 19 
C 2912 166 2656 326 2374 480 
C 2598 774 2746 1126 2829 1562 
L 3398 1562 
L 3398 1958 
L 1677 1958 
L 1894 2413 
L 1779 2438 
L 2061 2438 
L 2061 3398 
C 2374 3168 2771 2854 2938 2701 
L 3206 3046 
C 3034 3174 2336 3616 2061 3776 
L 2061 3802 
L 3373 3802 
L 3373 4198 
L 2061 4198 
L 2061 5382 
L 1613 5382 
L 1613 4198 
L 288 4198 
L 288 3802 
L 1485 3802 
C 1171 3379 678 2982 218 2784 
C 314 2694 422 2528 480 2419 
C 870 2637 1293 2989 1613 3373 
L 1613 2477 
L 1440 2515 
L 1178 1958 
L 250 1958 
L 250 1562 
L 979 1562 
C 806 1222 627 896 486 653 
L 909 506 
L 1005 678 
C 1222 589 1434 493 1638 384 
C 1306 147 858 -13 269 -109 
C 352 -211 448 -384 480 -512 
C 1171 -365 1683 -154 2061 160 
C 2355 -13 2611 -186 2810 -352 
L 2963 -192 
C 3046 -301 3136 -448 3174 -531 
C 3802 -205 4288 205 4666 710 
C 4979 192 5370 -224 5862 -512 
C 5939 -378 6093 -192 6208 -96 
C 5690 173 5280 614 4960 1165 
C 5350 1856 5594 2707 5754 3750 
L 6144 3750 
L 6144 4198 
L 4262 4198 
C 4358 4557 4442 4928 4506 5312 
L 4026 5382 
z
M 1478 1562 
L 2368 1562 
C 2285 1216 2157 928 1965 698 
C 1715 819 1459 934 1197 1030 
L 1478 1562 
z
M 4134 3750 
L 5254 3750 
C 5139 2950 4966 2266 4698 1696 
C 4435 2298 4250 3002 4134 3750 
z
" transform="scale(0.015625)"/>
      <path id="NotoSansCJKjp-Regular-8a08" d="M 550 3437 
L 550 3059 
L 2547 3059 
L 2547 3437 
L 550 3437 
z
M 582 5152 
L 582 4768 
L 2554 4768 
L 2554 5152 
L 582 5152 
z
M 550 2586 
L 550 2202 
L 2547 2202 
L 2547 2586 
L 550 2586 
z
M 243 4314 
L 243 3910 
L 2790 3910 
L 2790 4314 
L 243 4314 
z
M 4288 5357 
L 4288 3187 
L 2784 3187 
L 2784 2714 
L 4288 2714 
L 4288 -512 
L 4768 -512 
L 4768 2714 
L 6214 2714 
L 6214 3187 
L 4768 3187 
L 4768 5357 
L 4288 5357 
z
M 538 1722 
L 538 -442 
L 966 -442 
L 966 -147 
L 2528 -147 
L 2528 1722 
L 538 1722 
z
M 966 1318 
L 2099 1318 
L 2099 250 
L 966 250 
L 966 1318 
z
" transform="scale(0.015625)"/>
      <path id="NotoSansCJKjp-Regular-753b" d="M 5382 3866 
L 5382 346 
L 1037 346 
L 1037 3866 
L 570 3866 
L 570 -512 
L 1037 -512 
L 1037 -109 
L 5382 -109 
L 5382 -493 
L 5850 -493 
L 5850 3866 
L 5382 3866 
z
M 1645 3789 
L 1645 909 
L 4730 909 
L 4730 3789 
L 3418 3789 
L 3418 4506 
L 6035 4506 
L 6035 4960 
L 371 4960 
L 371 4506 
L 2931 4506 
L 2931 3789 
L 1645 3789 
z
M 2054 2163 
L 2963 2163 
L 2963 1318 
L 2054 1318 
L 2054 2163 
z
M 3392 2163 
L 4307 2163 
L 4307 1318 
L 3392 1318 
L 3392 2163 
z
M 2054 3386 
L 2963 3386 
L 2963 2547 
L 2054 2547 
L 2054 3386 
z
M 3392 3386 
L 4307 3386 
L 4307 2547 
L 3392 2547 
L 3392 3386 
z
" transform="scale(0.015625)"/>
      <path id="NotoSansCJKjp-Regular-9078" d="M 320 4979 
C 691 4666 1107 4198 1280 3885 
L 1683 4154 
C 1498 4474 1075 4922 691 5222 
L 320 4979 
z
M 4352 1018 
C 4794 787 5261 486 5523 250 
L 5990 454 
C 5690 698 5158 1005 4698 1229 
L 4352 1018 
z
M 3174 1242 
C 2886 986 2413 736 1978 570 
C 2080 499 2253 346 2330 269 
C 2758 467 3270 781 3603 1094 
L 3174 1242 
z
M 1530 2848 
L 288 2848 
L 288 2400 
L 1075 2400 
L 1075 730 
C 794 467 480 192 218 0 
L 467 -461 
C 774 -173 1062 102 1338 384 
C 1734 -128 2323 -352 3174 -384 
C 3898 -410 5299 -397 6029 -371 
C 6048 -230 6118 -19 6176 90 
C 5395 38 3885 19 3162 45 
C 2406 77 1837 294 1530 774 
L 1530 2848 
z
M 4461 3136 
L 4461 2669 
L 3411 2669 
L 3411 3136 
L 2957 3136 
L 2957 2669 
L 2010 2669 
L 2010 2298 
L 2957 2298 
L 2957 1690 
L 1805 1690 
L 1805 1312 
L 6093 1312 
L 6093 1690 
L 4922 1690 
L 4922 2298 
L 5894 2298 
L 5894 2669 
L 4922 2669 
L 4922 3136 
L 4461 3136 
z
M 3411 2298 
L 4461 2298 
L 4461 1690 
L 3411 1690 
L 3411 2298 
z
M 2035 4378 
L 2035 3706 
C 2035 3315 2163 3219 2637 3219 
C 2733 3219 3334 3219 3437 3219 
C 3770 3219 3891 3328 3936 3744 
C 3814 3770 3661 3821 3578 3878 
C 3558 3597 3533 3558 3379 3558 
C 3258 3558 2771 3558 2682 3558 
C 2477 3558 2445 3584 2445 3706 
L 2445 4038 
L 3712 4038 
L 3712 5126 
L 1926 5126 
L 1926 4794 
L 3296 4794 
L 3296 4378 
L 2035 4378 
z
M 4141 4378 
L 4141 3712 
C 4141 3315 4275 3219 4755 3219 
C 4858 3219 5510 3219 5619 3219 
C 5958 3219 6086 3334 6125 3763 
C 6010 3795 5856 3840 5773 3904 
C 5747 3603 5722 3558 5562 3558 
C 5427 3558 4902 3558 4800 3558 
C 4589 3558 4550 3584 4550 3712 
L 4550 4038 
L 5805 4038 
L 5805 5126 
L 4019 5126 
L 4019 4794 
L 5382 4794 
L 5382 4378 
L 4141 4378 
z
" transform="scale(0.015625)"/>
      <path id="NotoSansCJKjp-Regular-629e" d="M 2918 5011 
L 2918 2829 
C 2918 1869 2842 653 2029 -192 
C 2131 -250 2317 -422 2394 -512 
C 3162 275 3347 1453 3386 2426 
L 4186 2426 
C 4467 1082 4992 6 5920 -525 
C 5997 -390 6150 -198 6259 -102 
C 5421 320 4915 1280 4659 2426 
L 5907 2426 
L 5907 5011 
L 2918 5011 
z
M 3392 4557 
L 5427 4557 
L 5427 2880 
L 3392 2880 
L 3392 4557 
z
M 211 1997 
L 333 1530 
L 1254 1760 
L 1254 70 
C 1254 -32 1216 -64 1114 -70 
C 1024 -70 710 -77 365 -64 
C 429 -192 499 -390 518 -512 
C 1005 -512 1286 -499 1466 -422 
C 1645 -346 1715 -218 1715 70 
L 1715 1875 
L 2637 2112 
L 2592 2547 
L 1715 2336 
L 1715 3622 
L 2592 3622 
L 2592 4070 
L 1715 4070 
L 1715 5376 
L 1254 5376 
L 1254 4070 
L 294 4070 
L 294 3622 
L 1254 3622 
L 1254 2227 
L 211 1997 
z
" transform="scale(0.015625)"/>
      <path id="NotoSansCJKjp-Regular-6ed1" d="M 582 4973 
C 992 4787 1485 4480 1728 4243 
L 2003 4640 
C 1754 4864 1254 5146 845 5318 
L 582 4973 
z
M 243 3238 
C 659 3059 1158 2771 1408 2554 
L 1683 2957 
C 1427 3168 915 3443 506 3597 
L 243 3238 
z
M 429 -115 
L 845 -422 
C 1197 179 1619 986 1939 1664 
L 1574 1965 
C 1222 1229 755 384 429 -115 
z
M 3053 1370 
L 4998 1370 
L 4998 915 
L 3053 915 
L 3053 1370 
z
M 3053 1741 
L 3053 2189 
L 4998 2189 
L 4998 1741 
L 3053 1741 
z
M 2605 2573 
L 2605 -512 
L 3053 -512 
L 3053 550 
L 4998 550 
L 4998 -26 
C 4998 -109 4966 -134 4883 -134 
C 4794 -141 4486 -141 4166 -128 
C 4224 -243 4282 -403 4301 -518 
C 4762 -518 5043 -512 5222 -448 
C 5395 -384 5446 -269 5446 -26 
L 5446 2573 
L 2605 2573 
z
M 3738 4320 
L 3738 3411 
L 3066 3411 
L 3066 4755 
L 4973 4755 
L 4973 4320 
L 3738 4320 
z
M 4115 3411 
L 4115 3994 
L 4973 3994 
L 4973 3411 
L 4115 3411 
z
M 2630 5139 
L 2630 3411 
L 1965 3411 
L 1965 2323 
L 2406 2323 
L 2406 3021 
L 5619 3021 
L 5619 2323 
L 6080 2323 
L 6080 3411 
L 5427 3411 
L 5427 5139 
L 2630 5139 
z
" transform="scale(0.015625)"/>
      <path id="NotoSansCJKjp-Regular-3089" d="M 2144 5018 
L 2016 4531 
C 2502 4397 3891 4115 4499 4032 
L 4621 4525 
C 4058 4576 2694 4845 2144 5018 
z
M 2003 3853 
L 1466 3923 
C 1427 3251 1267 1907 1139 1325 
L 1613 1210 
C 1651 1312 1709 1421 1805 1530 
C 2253 2067 2944 2387 3789 2387 
C 4442 2387 4915 2022 4915 1510 
C 4915 634 3930 51 1907 301 
L 2061 -224 
C 4442 -422 5453 352 5453 1498 
C 5453 2246 4800 2835 3821 2835 
C 3053 2835 2349 2592 1734 2054 
C 1805 2464 1914 3418 2003 3853 
z
" transform="scale(0.015625)"/>
      <path id="NotoSansCJKjp-Regular-304b" d="M 5005 4314 
L 4538 4102 
C 4992 3571 5491 2445 5677 1786 
L 6176 2022 
C 5958 2618 5402 3795 5005 4314 
z
M 499 3590 
L 550 3034 
C 717 3059 979 3091 1126 3110 
L 1939 3200 
C 1722 2342 1242 883 589 6 
L 1114 -198 
C 1786 883 2221 2330 2458 3251 
C 2739 3277 2995 3296 3149 3296 
C 3552 3296 3827 3187 3827 2598 
C 3827 1907 3725 1075 3520 640 
C 3392 365 3200 314 2963 314 
C 2784 314 2445 358 2176 442 
L 2259 -90 
C 2464 -141 2771 -186 3014 -186 
C 3430 -186 3744 -77 3949 352 
C 4218 883 4320 1901 4320 2662 
C 4320 3526 3853 3744 3283 3744 
C 3130 3744 2861 3725 2560 3699 
L 2726 4614 
C 2752 4736 2778 4877 2803 4992 
L 2208 5056 
C 2208 4621 2144 4122 2042 3661 
C 1658 3629 1280 3597 1069 3590 
C 864 3584 698 3578 499 3590 
z
" transform="scale(0.015625)"/>
      <path id="NotoSansCJKjp-Regular-306b" d="M 2918 4320 
L 2918 3808 
C 3622 3731 4864 3731 5549 3808 
L 5549 4326 
C 4909 4230 3616 4205 2918 4320 
z
M 3168 1715 
L 2707 1760 
C 2637 1446 2598 1222 2598 1005 
C 2598 403 3078 45 4154 45 
C 4813 45 5350 102 5754 179 
L 5741 717 
C 5222 602 4730 550 4154 550 
C 3283 550 3072 832 3072 1126 
C 3072 1299 3104 1478 3168 1715 
z
M 1696 4813 
L 1126 4864 
C 1126 4723 1107 4557 1082 4410 
C 1005 3878 794 2784 794 1843 
C 794 979 902 243 1030 -211 
L 1491 -179 
C 1485 -115 1478 -26 1472 45 
C 1466 115 1485 237 1504 333 
C 1562 634 1792 1312 1958 1766 
L 1690 1971 
C 1581 1709 1427 1325 1318 1037 
C 1280 1350 1261 1619 1261 1933 
C 1261 2650 1459 3795 1581 4384 
C 1606 4499 1664 4704 1696 4813 
z
" transform="scale(0.015625)"/>
      <path id="NotoSansCJKjp-Regular-52d5" d="M 4192 5293 
C 4192 4806 4192 4333 4179 3878 
L 3418 3878 
L 3418 3437 
L 4166 3437 
C 4109 2227 3942 1184 3386 422 
L 3386 448 
L 2099 314 
L 2099 826 
L 3360 826 
L 3360 1197 
L 2099 1197 
L 2099 1587 
L 3347 1587 
L 3347 3501 
L 2099 3501 
L 2099 3904 
L 3469 3904 
L 3469 4282 
L 2099 4282 
L 2099 4755 
C 2566 4806 3008 4864 3354 4941 
L 3117 5312 
C 2451 5158 1286 5043 339 4998 
C 384 4896 435 4742 454 4640 
C 832 4653 1248 4678 1658 4710 
L 1658 4282 
L 269 4282 
L 269 3904 
L 1658 3904 
L 1658 3501 
L 461 3501 
L 461 1587 
L 1658 1587 
L 1658 1197 
L 442 1197 
L 442 826 
L 1658 826 
L 1658 269 
L 269 141 
L 333 -282 
C 1056 -205 2054 -90 3034 26 
C 2950 -51 2854 -128 2758 -198 
C 2874 -275 3040 -435 3110 -544 
C 4256 307 4544 1722 4627 3437 
L 5536 3437 
C 5472 1094 5395 243 5242 51 
C 5184 -32 5120 -45 5018 -45 
C 4896 -45 4608 -45 4294 -19 
C 4371 -147 4422 -346 4435 -480 
C 4736 -493 5037 -499 5222 -474 
C 5414 -454 5542 -403 5651 -230 
C 5869 38 5933 934 6003 3642 
C 6003 3699 6003 3878 6003 3878 
L 4640 3878 
C 4653 4333 4659 4806 4659 5293 
L 4192 5293 
z
M 858 2387 
L 1658 2387 
L 1658 1920 
L 858 1920 
L 858 2387 
z
M 2099 2387 
L 2938 2387 
L 2938 1920 
L 2099 1920 
L 2099 2387 
z
M 858 3168 
L 1658 3168 
L 1658 2707 
L 858 2707 
L 858 3168 
z
M 2099 3168 
L 2938 3168 
L 2938 2707 
L 2099 2707 
L 2099 3168 
z
" transform="scale(0.015625)"/>
      <path id="NotoSansCJKjp-Regular-306a" d="M 5677 2931 
L 5965 3354 
C 5664 3584 4934 4000 4474 4205 
L 4211 3814 
C 4640 3622 5331 3226 5677 2931 
z
M 3981 1056 
L 3987 768 
C 3987 416 3808 134 3277 134 
C 2778 134 2534 339 2534 640 
C 2534 934 2854 1152 3322 1152 
C 3552 1152 3776 1120 3981 1056 
z
M 4397 3104 
L 3898 3104 
C 3910 2650 3942 2016 3968 1491 
C 3770 1536 3558 1555 3341 1555 
C 2618 1555 2061 1184 2061 595 
C 2061 -38 2637 -326 3341 -326 
C 4134 -326 4461 90 4461 602 
L 4454 870 
C 4870 666 5216 378 5491 134 
L 5766 570 
C 5434 851 4986 1165 4435 1363 
L 4390 2413 
C 4384 2643 4384 2842 4397 3104 
z
M 2886 5082 
L 2323 5133 
C 2310 4787 2221 4384 2125 4026 
C 1875 4006 1632 3994 1402 3994 
C 1133 3994 858 4006 621 4038 
L 653 3558 
C 896 3546 1165 3539 1402 3539 
C 1587 3539 1779 3546 1971 3558 
C 1677 2810 1133 1786 602 1165 
L 1094 909 
C 1606 1600 2176 2707 2490 3610 
C 2912 3667 3315 3750 3654 3846 
L 3642 4326 
C 3315 4218 2970 4141 2637 4090 
C 2739 4461 2829 4851 2886 5082 
z
" transform="scale(0.015625)"/>
     </defs>
     <use xlink:href="#NotoSansCJKjp-Regular-4e0a"/>
     <use xlink:href="#NotoSansCJKjp-Regular-9650" transform="translate(99.999985 0)"/>
     <use xlink:href="#NotoSansCJKjp-Regular-3092" transform="translate(199.999969 0)"/>
     <use xlink:href="#NotoSansCJKjp-Regular-5c11" transform="translate(299.999954 0)"/>
     <use xlink:href="#NotoSansCJKjp-Regular-3057" transform="translate(399.999939 0)"/>
     <use xlink:href="#NotoSansCJKjp-Regular-5909" transform="translate(499.999924 0)"/>
     <use xlink:href="#NotoSansCJKjp-Regular-3048" transform="translate(599.999908 0)"/>
     <use xlink:href="#NotoSansCJKjp-Regular-3066" transform="translate(699.999893 0)"/>
     <use xlink:href="#NotoSansCJKjp-Regular-3082" transform="translate(799.999878 0)"/>
     <use xlink:href="#NotoSansCJKjp-Regular-3001" transform="translate(899.999863 0)"/>
     <use xlink:href="#NotoSansCJKjp-Regular-6574" transform="translate(999.999847 0)"/>
     <use xlink:href="#NotoSansCJKjp-Regular-6570" transform="translate(1099.999832 0)"/>
     <use xlink:href="#NotoSansCJKjp-Regular-8a08" transform="translate(1199.999817 0)"/>
     <use xlink:href="#NotoSansCJKjp-Regular-753b" transform="translate(1299.999802 0)"/>
     <use xlink:href="#NotoSansCJKjp-Regular-306e" transform="translate(1399.999786 0)"/>
     <use xlink:href="#NotoSansCJKjp-Regular-9078" transform="translate(1499.999771 0)"/>
     <use xlink:href="#NotoSansCJKjp-Regular-629e" transform="translate(1599.999756 0)"/>
     <use xlink:href="#NotoSansCJKjp-Regular-306f" transform="translate(1699.999741 0)"/>
     <use xlink:href="#NotoSansCJKjp-Regular-6ed1" transform="translate(1799.999725 0)"/>
     <use xlink:href="#NotoSansCJKjp-Regular-3089" transform="translate(1899.99971 0)"/>
     <use xlink:href="#NotoSansCJKjp-Regular-304b" transform="translate(1999.999695 0)"/>
     <use xlink:href="#NotoSansCJKjp-Regular-306b" transform="translate(2099.99968 0)"/>
     <use xlink:href="#NotoSansCJKjp-Regular-52d5" transform="translate(2199.999664 0)"/>
     <use xlink:href="#NotoSansCJKjp-Regular-304b" transform="translate(2299.999649 0)"/>
     <use xlink:href="#NotoSansCJKjp-Regular-306a" transform="translate(2399.999634 0)"/>
     <use xlink:href="#NotoSansCJKjp-Regular-3044" transform="translate(2499.999619 0)"/>
    </g>
   </g>
   <g id="PathCollection_1">
    <defs>
     <path id="m88b99acf8d" d="M 0 3.872983 
C 1.027127 3.872983 2.012324 3.464901 2.738613 2.738613 
C 3.464901 2.012324 3.872983 1.027127 3.872983 0 
C 3.872983 -1.027127 3.464901 -2.012324 2.738613 -2.738613 
C 2.012324 -3.464901 1.027127 -3.872983 0 -3.872983 
C -1.027127 -3.872983 -2.012324 -3.464901 -2.738613 -2.738613 
C -3.464901 -2.012324 -3.872983 -1.027127 -3.872983 0 
C -3.872983 1.027127 -3.464901 2.012324 -2.738613 2.738613 
C -2.012324 3.464901 -1.027127 3.872983 0 3.872983 
z
" style="stroke: #3c8c7c"/>
    </defs>
    <g clip-path="url(#pfd5b8fbebe)">
     <use xlink:href="#m88b99acf8d" x="194.130137" y="80.88556" style="fill: #3c8c7c; stroke: #3c8c7c"/>
    </g>
   </g>
   <g id="PathCollection_2">
    <g clip-path="url(#pfd5b8fbebe)">
     <use xlink:href="#m88b99acf8d" x="350.775034" y="142.264504" style="fill: #3c8c7c; stroke: #3c8c7c"/>
    </g>
   </g>
   <g id="PathCollection_3">
    <g clip-path="url(#pfd5b8fbebe)">
     <use xlink:href="#m88b99acf8d" x="507.419931" y="203.643449" style="fill: #3c8c7c; stroke: #3c8c7c"/>
    </g>
   </g>
   <g id="PathCollection_4">
    <g clip-path="url(#pfd5b8fbebe)">
     <use xlink:href="#m88b99acf8d" x="664.064829" y="265.022393" style="fill: #3c8c7c; stroke: #3c8c7c"/>
    </g>
   </g>
   <g id="PathCollection_5">
    <defs>
     <path id="madbdf49c78" d="M 0 3.872983 
C 1.027127 3.872983 2.012324 3.464901 2.738613 2.738613 
C 3.464901 2.012324 3.872983 1.027127 3.872983 0 
C 3.872983 -1.027127 3.464901 -2.012324 2.738613 -2.738613 
C 2.012324 -3.464901 1.027127 -3.872983 0 -3.872983 
C -1.027127 -3.872983 -2.012324 -3.464901 -2.738613 -2.738613 
C -3.464901 -2.012324 -3.872983 -1.027127 -3.872983 0 
C -3.872983 1.027127 -3.464901 2.012324 -2.738613 2.738613 
C -2.012324 3.464901 -1.027127 3.872983 0 3.872983 
z
" style="stroke: #3c8c7c; stroke-width: 2"/>
    </defs>
    <g clip-path="url(#pfd5b8fbebe)">
     <use xlink:href="#madbdf49c78" x="350.775034" y="80.88556" style="fill: #ffffff; stroke: #3c8c7c; stroke-width: 2"/>
    </g>
   </g>
   <g id="PathCollection_6">
    <g clip-path="url(#pfd5b8fbebe)">
     <use xlink:href="#madbdf49c78" x="507.419931" y="142.264504" style="fill: #ffffff; stroke: #3c8c7c; stroke-width: 2"/>
    </g>
   </g>
   <g id="PathCollection_7">
    <g clip-path="url(#pfd5b8fbebe)">
     <use xlink:href="#madbdf49c78" x="664.064829" y="203.643449" style="fill: #ffffff; stroke: #3c8c7c; stroke-width: 2"/>
    </g>
   </g>
   <g id="PathCollection_8">
    <defs>
     <path id="mdcbf8feae0" d="M 0 3.535534 
C 0.937635 3.535534 1.836992 3.163008 2.5 2.5 
C 3.163008 1.836992 3.535534 0.937635 3.535534 0 
C 3.535534 -0.937635 3.163008 -1.836992 2.5 -2.5 
C 1.836992 -3.163008 0.937635 -3.535534 0 -3.535534 
C -0.937635 -3.535534 -1.836992 -3.163008 -2.5 -2.5 
C -3.163008 -1.836992 -3.535534 -0.937635 -3.535534 0 
C -3.535534 0.937635 -3.163008 1.836992 -2.5 2.5 
C -1.836992 3.163008 -0.937635 3.535534 0 3.535534 
z
" style="stroke: #d18b39"/>
    </defs>
    <g clip-path="url(#pfd5b8fbebe)">
     <use xlink:href="#mdcbf8feae0" x="504.809183" y="142.264504" style="fill: #d18b39; stroke: #d18b39"/>
    </g>
   </g>
  </g>
 </g>
 <defs>
  <clipPath id="pfd5b8fbebe">
   <rect x="37.48524" y="19.506615" width="731.00952" height="282.343145"/>
  </clipPath>
 </defs>
</svg>
