<svg xmlns="http://www.w3.org/2000/svg" viewBox="0 0 800 760" role="img" aria-labelledby="figure-title figure-description"><title id="figure-title">Successive Halvingのresource配分</title><desc id="figure-description">12 trialをresource 1で評価し4 trial、さらに1 trialへ絞る固定実行。</desc><rect width="800" height="760" rx="24" fill="#f7f5ee"/><text x="36" y="52" class="title">全trialを最後まで育てない</text><text x="36" y="80" class="subtitle">Successive Halving · 12 → 4 → 1 trials · resource 1 → 3 → 9</text><rect x="36" y="112" width="728" height="430" rx="18" fill="#fff" stroke="#d6ddd7"/><text x="54" y="144" class="panel-title">trialごとのmetricとpromotion</text><line x1="105" y1="170" x2="105" y2="500" stroke="#dfe5e0" stroke-width="2"/><text x="105" y="526" text-anchor="middle" class="axis">resource 1</text><line x1="400" y1="170" x2="400" y2="500" stroke="#dfe5e0" stroke-width="2"/><text x="400" y="526" text-anchor="middle" class="axis">resource 3</text><line x1="695" y1="170" x2="695" y2="500" stroke="#dfe5e0" stroke-width="2"/><text x="695" y="526" text-anchor="middle" class="axis">resource 9</text><polyline points="105,401.13 400,425.41" fill="none" stroke="#367e61" stroke-width="2"/><circle cx="105" cy="401.13" r="4" fill="#367e61"/><circle cx="400" cy="425.41" r="4" fill="#367e61"/><polyline points="105,396.73 400,439.30 695,480.00" fill="none" stroke="#dc6b3f" stroke-width="4"/><circle cx="105" cy="396.73" r="4" fill="#dc6b3f"/><circle cx="400" cy="439.30" r="4" fill="#dc6b3f"/><circle cx="695" cy="480.00" r="4" fill="#dc6b3f"/><polyline points="105,382.73 400,400.20" fill="none" stroke="#367e61" stroke-width="2"/><circle cx="105" cy="382.73" r="4" fill="#367e61"/><circle cx="400" cy="400.20" r="4" fill="#367e61"/><polyline points="105,351.39 400,363.22" fill="none" stroke="#367e61" stroke-width="2"/><circle cx="105" cy="351.39" r="4" fill="#367e61"/><circle cx="400" cy="363.22" r="4" fill="#367e61"/><polyline points="105,334.13" fill="none" stroke="#b8beb9" stroke-width="2"/><circle cx="105" cy="334.13" r="4" fill="#b8beb9"/><polyline points="105,317.66" fill="none" stroke="#b8beb9" stroke-width="2"/><circle cx="105" cy="317.66" r="4" fill="#b8beb9"/><polyline points="105,299.82" fill="none" stroke="#b8beb9" stroke-width="2"/><circle cx="105" cy="299.82" r="4" fill="#b8beb9"/><polyline points="105,264.16" fill="none" stroke="#b8beb9" stroke-width="2"/><circle cx="105" cy="264.16" r="4" fill="#b8beb9"/><polyline points="105,251.84" fill="none" stroke="#b8beb9" stroke-width="2"/><circle cx="105" cy="251.84" r="4" fill="#b8beb9"/><polyline points="105,238.43" fill="none" stroke="#b8beb9" stroke-width="2"/><circle cx="105" cy="238.43" r="4" fill="#b8beb9"/><polyline points="105,214.86" fill="none" stroke="#b8beb9" stroke-width="2"/><circle cx="105" cy="214.86" r="4" fill="#b8beb9"/><polyline points="105,195.00" fill="none" stroke="#b8beb9" stroke-width="2"/><circle cx="105" cy="195.00" r="4" fill="#b8beb9"/><text x="54" y="582" class="metric">消費resource</text><text x="746" y="582" text-anchor="end" class="metric-value">26 / 108（全trial完走比）</text><text x="54" y="616" class="metric">この固定例で省いたresource</text><text x="746" y="616" text-anchor="end" class="metric-value">76%</text><text x="36" y="662" class="caption">灰色はresource 1、緑は3、橙は9まで進んだtrial。allocatorの判断だけを描く。</text><text x="36" y="694" class="caption">実行生成: scripts/generate_article_figures.py::_hyperband_rungs_probe · dataset 0.18.19</text><text x="36" y="728" class="caveat">固定の滑らかなlearning curveです。遅咲きtrial・noise・asynchronous待ちは省略しています。</text><style>text{font-family:system-ui,-apple-system,'Segoe UI',sans-serif;fill:#26352d}.title{font-size:28px;font-weight:750}.subtitle{font-size:16px;fill:#617068}.panel-title,.method{font-size:19px;font-weight:750}.metric,.metric-value{font-size:16px;font-variant-numeric:tabular-nums}.metric-value{font-weight:750}.status,.axis,.note{font-size:14px;fill:#617068}.caption{font-size:15px;fill:#46554d}.caveat{font-size:14px;fill:#7a4b38}</style></svg>
