<svg xmlns="http://www.w3.org/2000/svg" viewBox="0 0 440 886" width="440" height="886" role="img" aria-labelledby="figure-title figure-description"><title id="figure-title">Random Searchの48回をそのまま見る</title><desc id="figure-description">固定seedで2次元の探索空間を48回サンプリングした点と、それまでの最良値の推移。</desc><rect width="440" height="886" rx="16" fill="#f7f6f1"/><text x="20" y="34" class="title">Random Searchの48回をそのまま見る</text><text x="20" y="59" class="subtitle">2次元の探索空間・48試行・seed 7</text><rect x="20" y="84" width="400" height="314" rx="12" fill="#fff" stroke="#d6ddd7"/><text x="34" y="112" class="panel-title">どこを試したか</text><rect x="64" y="136" width="330" height="220" fill="#f5f8f4" stroke="#c7d2ca"/><line x1="146.5" y1="136" x2="146.5" y2="356" stroke="#e1e7e2"/><line x1="64" y1="191" x2="394" y2="191" stroke="#e1e7e2"/><line x1="229" y1="136" x2="229" y2="356" stroke="#e1e7e2"/><line x1="64" y1="246" x2="394" y2="246" stroke="#e1e7e2"/><line x1="311.5" y1="136" x2="311.5" y2="356" stroke="#e1e7e2"/><line x1="64" y1="301" x2="394" y2="301" stroke="#e1e7e2"/><circle cx="170.86" cy="322.81" r="3.5" fill="#3a8062" opacity="0.72"/><circle cx="278.81" cy="340.06" r="3.5" fill="#3a8062" opacity="0.72"/><circle cx="240.84" cy="275.55" r="3.5" fill="#3a8062" opacity="0.72"/><circle cx="83.14" cy="244.36" r="3.5" fill="#3a8062" opacity="0.72"/><circle cx="76.37" cy="260.60" r="3.5" fill="#3a8062" opacity="0.72"/><circle cx="87.05" cy="336.04" r="3.5" fill="#3a8062" opacity="0.72"/><circle cx="204.09" cy="174.09" r="3.5" fill="#3a8062" opacity="0.72"/><circle cx="104.85" cy="306.89" r="3.5" fill="#3a8062" opacity="0.72"/><circle cx="271.05" cy="147.50" r="3.5" fill="#3a8062" opacity="0.72"/><circle cx="254.44" cy="268.73" r="3.5" fill="#3a8062" opacity="0.72"/><circle cx="386.16" cy="345.75" r="3.5" fill="#3a8062" opacity="0.72"/><circle cx="347.29" cy="292.29" r="3.5" fill="#3a8062" opacity="0.72"/><circle cx="111.60" cy="330.09" r="3.5" fill="#3a8062" opacity="0.72"/><circle cx="165.80" cy="176.45" r="5" fill="#dc6b3f" opacity="1"/><circle cx="123.64" cy="228.05" r="3.5" fill="#3a8062" opacity="0.72"/><circle cx="274.84" cy="274.07" r="3.5" fill="#3a8062" opacity="0.72"/><circle cx="244.76" cy="342.19" r="3.5" fill="#3a8062" opacity="0.72"/><circle cx="83.67" cy="310.69" r="3.5" fill="#3a8062" opacity="0.72"/><circle cx="288.53" cy="261.93" r="3.5" fill="#3a8062" opacity="0.72"/><circle cx="167.67" cy="227.18" r="3.5" fill="#3a8062" opacity="0.72"/><circle cx="213.55" cy="290.05" r="3.5" fill="#3a8062" opacity="0.72"/><circle cx="326.15" cy="202.22" r="3.5" fill="#3a8062" opacity="0.72"/><circle cx="144.55" cy="229.63" r="3.5" fill="#3a8062" opacity="0.72"/><circle cx="237.31" cy="163.47" r="3.5" fill="#3a8062" opacity="0.72"/><circle cx="304.72" cy="292.65" r="3.5" fill="#3a8062" opacity="0.72"/><circle cx="387.46" cy="330.03" r="3.5" fill="#3a8062" opacity="0.72"/><circle cx="201.98" cy="189.43" r="3.5" fill="#3a8062" opacity="0.72"/><circle cx="114.15" cy="248.43" r="3.5" fill="#3a8062" opacity="0.72"/><circle cx="76.94" cy="208.99" r="3.5" fill="#3a8062" opacity="0.72"/><circle cx="316.31" cy="229.93" r="3.5" fill="#3a8062" opacity="0.72"/><circle cx="352.91" cy="286.98" r="3.5" fill="#3a8062" opacity="0.72"/><circle cx="293.45" cy="225.24" r="3.5" fill="#3a8062" opacity="0.72"/><circle cx="255.37" cy="255.63" r="3.5" fill="#3a8062" opacity="0.72"/><circle cx="341.19" cy="148.17" r="3.5" fill="#3a8062" opacity="0.72"/><circle cx="220.45" cy="209.89" r="3.5" fill="#3a8062" opacity="0.72"/><circle cx="84.02" cy="201.67" r="3.5" fill="#3a8062" opacity="0.72"/><circle cx="277.55" cy="137.52" r="3.5" fill="#3a8062" opacity="0.72"/><circle cx="335.24" cy="293.39" r="3.5" fill="#3a8062" opacity="0.72"/><circle cx="191.31" cy="208.90" r="3.5" fill="#3a8062" opacity="0.72"/><circle cx="71.45" cy="254.43" r="3.5" fill="#3a8062" opacity="0.72"/><circle cx="119.46" cy="330.24" r="3.5" fill="#3a8062" opacity="0.72"/><circle cx="83.45" cy="186.99" r="3.5" fill="#3a8062" opacity="0.72"/><circle cx="106.68" cy="301.52" r="3.5" fill="#3a8062" opacity="0.72"/><circle cx="193.01" cy="164.29" r="3.5" fill="#3a8062" opacity="0.72"/><circle cx="90.59" cy="257.18" r="3.5" fill="#3a8062" opacity="0.72"/><circle cx="245.32" cy="161.66" r="3.5" fill="#3a8062" opacity="0.72"/><circle cx="334.36" cy="165.92" r="3.5" fill="#3a8062" opacity="0.72"/><circle cx="155.88" cy="264.63" r="3.5" fill="#3a8062" opacity="0.72"/><text x="64" y="376" class="axis">0</text><text x="394" y="376" text-anchor="end" class="axis">1 · x</text><text x="54" y="148" text-anchor="end" class="axis">y</text><rect x="20" y="410" width="400" height="248" rx="12" fill="#fff" stroke="#d6ddd7"/><text x="34" y="438" class="panel-title">それまでの最良値はどう下がったか</text><line x1="64" y1="618" x2="394" y2="618" stroke="#9caaa1"/><line x1="64" y1="468" x2="64" y2="618" stroke="#9caaa1"/><polyline points="64.00,468.00 71.02,468.00 78.04,487.19 85.06,571.42 92.09,571.42 99.11,571.42 106.13,577.56 113.15,577.56 120.17,577.56 127.19,577.56 134.21,577.56 141.23,577.56 148.26,577.56 155.28,609.69 162.30,609.69 169.32,609.69 176.34,609.69 183.36,609.69 190.38,609.69 197.40,609.69 204.43,609.69 211.45,609.69 218.47,609.69 225.49,609.69 232.51,609.69 239.53,609.69 246.55,609.69 253.57,609.69 260.60,609.69 267.62,609.69 274.64,609.69 281.66,609.69 288.68,609.69 295.70,609.69 302.72,609.69 309.74,609.69 316.77,609.69 323.79,609.69 330.81,609.69 337.83,609.69 344.85,609.69 351.87,609.69 358.89,609.69 365.91,609.69 372.94,609.69 379.96,609.69 386.98,609.69 394.00,609.69" fill="none" stroke="#dc6b3f" stroke-width="3" stroke-linejoin="round"/><text x="64" y="638" class="axis">1回目</text><text x="394" y="638" text-anchor="end" class="axis">48回目</text><text x="20" y="692" class="metric">16分割のうち訪れたセル</text><text x="420" y="692" text-anchor="end" class="metric-value">16 / 16</text><text x="20" y="720" class="metric">最終の最良目的値</text><text x="420" y="720" text-anchor="end" class="metric-value">0.0148</text><text x="20" y="754" class="note">点の散らばりと改善の停滞を、</text><text x="20" y="775" class="note">同じ48回の評価から読みます。</text><text x="20" y="800" class="caption">実行生成: scripts/generate_article_figures.py::</text><text x="20" y="821" class="caption">_random_search_probe · dataset 0.18.19</text><text x="20" y="846" class="caveat">固定した2次元の目的関数と単一seedの教材です。</text><text x="20" y="867" class="caveat">高次元での被覆や手法の順位は示しません。</text><style>text{font-family:system-ui,-apple-system,'Segoe UI',sans-serif;fill:#26352d;font-size:15px}.title{font-size:18px;font-weight:750}.subtitle{fill:#617068}.panel-title{font-size:17px;font-weight:750}.method{font-size:16px;font-weight:750}.metric,.metric-value{font-size:16px;font-variant-numeric:tabular-nums}.metric-value{font-weight:750}.status,.axis,.note{fill:#617068}.caption{fill:#46554d}.caveat{fill:#7a4b38}.halo{paint-order:stroke;stroke:#fff;stroke-width:4px;stroke-linejoin:round}</style></svg>
