<svg xmlns="http://www.w3.org/2000/svg" viewBox="0 0 440 1022" width="440" height="1022" role="img" aria-labelledby="figure-title figure-description"><title id="figure-title">下界が上がると、捨てられる区間が増える</title><desc id="figure-description">固定した1変数の多項式を、pure Pythonの区間演算による下界で空間branch-and-boundした実行結果です。目的関数、最終的な区間の分割、暫定解と全体の下界の履歴を示します。McCormick relaxation、多変数のMINLP、solver一般の性能や有限時間での厳密解を示す図ではありません。</desc><rect width="440" height="1022" rx="16" fill="#f7f6f1"/><text x="20" y="34" class="title">下界が上がると、捨てられる区間が増える</text><text x="20" y="59" class="subtitle">固定した多項式・x ∈ [0, 2]・gapの許容値 0.01</text><line x1="20" y1="85" x2="42" y2="85" stroke="#245c42" stroke-width="5"/><text x="50" y="90" class="note">目的関数／未処理の区間</text><rect x="230" y="78" width="18" height="12" rx="3" fill="#bd6754"/><text x="256" y="90" class="note">下界で枝刈り</text><circle cx="26" cy="109" r="6" fill="#d67835"/><text x="38" y="114" class="note">暫定解（incumbent）</text><rect x="20" y="128" width="400" height="248" rx="12" fill="#fff" stroke="#d6ddd7"/><text x="34" y="156" class="panel-title">固定した目的関数と、得られた暫定解</text><line x1="56" y1="336.59" x2="404" y2="336.59" stroke="#ebe8e0"/><text x="48" y="341.59" text-anchor="end" class="axis">-1</text><line x1="56" y1="289.53" x2="404" y2="289.53" stroke="#ebe8e0"/><text x="48" y="294.53" text-anchor="end" class="axis">0</text><line x1="56" y1="242.47" x2="404" y2="242.47" stroke="#ebe8e0"/><text x="48" y="247.47" text-anchor="end" class="axis">1</text><line x1="56" y1="195.41" x2="404" y2="195.41" stroke="#ebe8e0"/><text x="48" y="200.41" text-anchor="end" class="axis">2</text><polyline points="56.00,289.53 58.17,290.69 60.35,291.84 62.52,292.96 64.70,294.06 66.88,295.15 69.05,296.21 71.22,297.25 73.40,298.28 75.58,299.29 77.75,300.28 79.92,301.25 82.10,302.21 84.28,303.15 86.45,304.07 88.62,304.98 90.80,305.87 92.97,306.75 95.15,307.61 97.32,308.46 99.50,309.29 101.68,310.11 103.85,310.92 106.03,311.71 108.20,312.49 110.38,313.26 112.55,314.01 114.72,314.76 116.90,315.49 119.07,316.21 121.25,316.91 123.42,317.61 125.60,318.29 127.77,318.96 129.95,319.62 132.12,320.27 134.30,320.91 136.48,321.54 138.65,322.15 140.82,322.76 143.00,323.35 145.18,323.94 147.35,324.51 149.52,325.07 151.70,325.62 153.88,326.16 156.05,326.68 158.23,327.20 160.40,327.70 162.57,328.20 164.75,328.68 166.93,329.15 169.10,329.61 171.27,330.05 173.45,330.49 175.62,330.91 177.80,331.32 179.98,331.71 182.15,332.09 184.33,332.46 186.50,332.82 188.67,333.16 190.85,333.49 193.03,333.80 195.20,334.10 197.38,334.39 199.55,334.66 201.72,334.91 203.90,335.15 206.08,335.37 208.25,335.57 210.42,335.76 212.60,335.93 214.78,336.08 216.95,336.21 219.12,336.32 221.30,336.42 223.47,336.49 225.65,336.54 227.83,336.58 230.00,336.59 232.17,336.58 234.35,336.54 236.53,336.49 238.70,336.41 240.88,336.30 243.05,336.17 245.22,336.01 247.40,335.83 249.58,335.62 251.75,335.39 253.92,335.12 256.10,334.83 258.27,334.51 260.45,334.15 262.62,333.77 264.80,333.35 266.98,332.90 269.15,332.42 271.33,331.90 273.50,331.35 275.67,330.76 277.85,330.14 280.02,329.47 282.20,328.77 284.38,328.03 286.55,327.25 288.73,326.43 290.90,325.57 293.08,324.66 295.25,323.71 297.42,322.72 299.60,321.68 301.77,320.59 303.95,319.46 306.12,318.27 308.30,317.04 310.48,315.76 312.65,314.42 314.82,313.03 317.00,311.59 319.18,310.09 321.35,308.54 323.53,306.92 325.70,305.25 327.88,303.52 330.05,301.73 332.22,299.88 334.40,297.96 336.57,295.98 338.75,293.94 340.93,291.82 343.10,289.64 345.28,287.39 347.45,285.07 349.62,282.68 351.80,280.21 353.97,277.67 356.15,275.05 358.32,272.36 360.50,269.58 362.68,266.73 364.85,263.80 367.03,260.78 369.20,257.68 371.38,254.49 373.55,251.22 375.72,247.86 377.90,244.41 380.07,240.86 382.25,237.23 384.43,233.50 386.60,229.67 388.78,225.74 390.95,221.72 393.12,217.60 395.30,213.37 397.47,209.04 399.65,204.61 401.82,200.06 404.00,195.41" fill="none" stroke="#245c42" stroke-width="4" stroke-linejoin="round" stroke-linecap="round"/><circle cx="230.00" cy="336.59" r="6.5" fill="#d67835" stroke="#fff" stroke-width="2"/><text x="230.00" y="314.59" text-anchor="middle" class="method halo">x*=1.00 · f=-1.00</text><text x="56.00" y="368" text-anchor="middle" class="axis">0</text><text x="143.00" y="368" text-anchor="middle" class="axis">0.5</text><text x="230.00" y="368" text-anchor="middle" class="axis">1</text><text x="317.00" y="368" text-anchor="middle" class="axis">1.5</text><text x="404.00" y="368" text-anchor="middle" class="axis">2</text><rect x="20" y="388" width="400" height="148" rx="12" fill="#fff" stroke="#d6ddd7"/><text x="34" y="416" class="panel-title">停止したときの区間の分割</text><text x="406" y="422" text-anchor="end" class="status">未処理 46 · 枝刈り 25</text><rect x="56" y="448" width="348" height="30" rx="6" fill="#edf1ed"/><rect x="56.00" y="448" width="87.00" height="30" fill="#bd6754" opacity="0.82"/><rect x="317.00" y="448" width="43.50" height="30" fill="#bd6754" opacity="0.82"/><rect x="360.50" y="448" width="43.50" height="30" fill="#bd6754" opacity="0.82"/><rect x="295.25" y="448" width="21.75" height="30" fill="#bd6754" opacity="0.82"/><rect x="143.00" y="448" width="21.75" height="30" fill="#bd6754" opacity="0.82"/><rect x="284.38" y="448" width="10.88" height="30" fill="#bd6754" opacity="0.82"/><rect x="164.75" y="448" width="10.88" height="30" fill="#bd6754" opacity="0.82"/><rect x="268.06" y="448" width="5.44" height="30" fill="#bd6754" opacity="0.82"/><rect x="186.50" y="448" width="5.44" height="30" fill="#bd6754" opacity="0.82"/><rect x="254.47" y="448" width="2.72" height="30" fill="#bd6754" opacity="0.82"/><rect x="202.81" y="448" width="2.72" height="30" fill="#bd6754" opacity="0.82"/><rect x="257.19" y="448" width="2.72" height="30" fill="#bd6754" opacity="0.82"/><rect x="259.91" y="448" width="2.72" height="30" fill="#bd6754" opacity="0.82"/><rect x="197.38" y="448" width="2.72" height="30" fill="#bd6754" opacity="0.82"/><rect x="200.09" y="448" width="2.72" height="30" fill="#bd6754" opacity="0.82"/><rect x="247.67" y="448" width="1.36" height="30" fill="#bd6754" opacity="0.82"/><rect x="210.97" y="448" width="1.36" height="30" fill="#bd6754" opacity="0.82"/><rect x="273.50" y="448" width="5.44" height="30" fill="#bd6754" opacity="0.82"/><rect x="278.94" y="448" width="5.44" height="30" fill="#bd6754" opacity="0.82"/><rect x="175.62" y="448" width="5.44" height="30" fill="#bd6754" opacity="0.82"/><rect x="181.06" y="448" width="5.44" height="30" fill="#bd6754" opacity="0.82"/><rect x="249.03" y="448" width="1.36" height="30" fill="#bd6754" opacity="0.82"/><rect x="250.39" y="448" width="1.36" height="30" fill="#bd6754" opacity="0.82"/><rect x="208.25" y="448" width="1.36" height="30" fill="#bd6754" opacity="0.82"/><rect x="209.61" y="448" width="1.36" height="30" fill="#bd6754" opacity="0.82"/><rect x="191.94" y="448" width="5.44" height="30" fill="#245c42" opacity="0.9"/><rect x="205.53" y="448" width="2.72" height="30" fill="#245c42" opacity="0.9"/><rect x="212.33" y="448" width="1.36" height="30" fill="#245c42" opacity="0.9"/><rect x="213.69" y="448" width="1.36" height="30" fill="#245c42" opacity="0.9"/><rect x="215.05" y="448" width="1.36" height="30" fill="#245c42" opacity="0.9"/><rect x="216.41" y="448" width="1.36" height="30" fill="#245c42" opacity="0.9"/><rect x="217.77" y="448" width="1.36" height="30" fill="#245c42" opacity="0.9"/><rect x="219.12" y="448" width="1.00" height="30" fill="#245c42" opacity="0.9"/><rect x="219.80" y="448" width="1.00" height="30" fill="#245c42" opacity="0.9"/><rect x="220.48" y="448" width="1.00" height="30" fill="#245c42" opacity="0.9"/><rect x="221.16" y="448" width="1.00" height="30" fill="#245c42" opacity="0.9"/><rect x="221.84" y="448" width="1.00" height="30" fill="#245c42" opacity="0.9"/><rect x="222.52" y="448" width="1.00" height="30" fill="#245c42" opacity="0.9"/><rect x="223.20" y="448" width="1.00" height="30" fill="#245c42" opacity="0.9"/><rect x="223.88" y="448" width="1.00" height="30" fill="#245c42" opacity="0.9"/><rect x="224.56" y="448" width="1.00" height="30" fill="#245c42" opacity="0.9"/><rect x="225.24" y="448" width="1.00" height="30" fill="#245c42" opacity="0.9"/><rect x="225.92" y="448" width="1.00" height="30" fill="#245c42" opacity="0.9"/><rect x="226.60" y="448" width="1.00" height="30" fill="#245c42" opacity="0.9"/><rect x="227.28" y="448" width="1.00" height="30" fill="#245c42" opacity="0.9"/><rect x="227.96" y="448" width="1.00" height="30" fill="#245c42" opacity="0.9"/><rect x="228.64" y="448" width="1.00" height="30" fill="#245c42" opacity="0.9"/><rect x="229.32" y="448" width="1.00" height="30" fill="#245c42" opacity="0.9"/><rect x="230.00" y="448" width="1.00" height="30" fill="#245c42" opacity="0.9"/><rect x="230.68" y="448" width="1.00" height="30" fill="#245c42" opacity="0.9"/><rect x="231.36" y="448" width="1.00" height="30" fill="#245c42" opacity="0.9"/><rect x="232.04" y="448" width="1.00" height="30" fill="#245c42" opacity="0.9"/><rect x="232.72" y="448" width="1.00" height="30" fill="#245c42" opacity="0.9"/><rect x="233.40" y="448" width="1.00" height="30" fill="#245c42" opacity="0.9"/><rect x="234.08" y="448" width="1.00" height="30" fill="#245c42" opacity="0.9"/><rect x="234.76" y="448" width="1.00" height="30" fill="#245c42" opacity="0.9"/><rect x="235.44" y="448" width="1.00" height="30" fill="#245c42" opacity="0.9"/><rect x="236.12" y="448" width="1.00" height="30" fill="#245c42" opacity="0.9"/><rect x="236.80" y="448" width="1.00" height="30" fill="#245c42" opacity="0.9"/><rect x="237.48" y="448" width="1.00" height="30" fill="#245c42" opacity="0.9"/><rect x="238.16" y="448" width="1.00" height="30" fill="#245c42" opacity="0.9"/><rect x="238.84" y="448" width="1.00" height="30" fill="#245c42" opacity="0.9"/><rect x="239.52" y="448" width="1.00" height="30" fill="#245c42" opacity="0.9"/><rect x="240.20" y="448" width="1.00" height="30" fill="#245c42" opacity="0.9"/><rect x="240.88" y="448" width="1.36" height="30" fill="#245c42" opacity="0.9"/><rect x="242.23" y="448" width="1.36" height="30" fill="#245c42" opacity="0.9"/><rect x="243.59" y="448" width="1.36" height="30" fill="#245c42" opacity="0.9"/><rect x="244.95" y="448" width="1.36" height="30" fill="#245c42" opacity="0.9"/><rect x="246.31" y="448" width="1.36" height="30" fill="#245c42" opacity="0.9"/><rect x="251.75" y="448" width="2.72" height="30" fill="#245c42" opacity="0.9"/><rect x="262.62" y="448" width="5.44" height="30" fill="#245c42" opacity="0.9"/><line x1="230.00" y1="442" x2="230.00" y2="484" stroke="#d67835" stroke-width="3.5"/><text x="230.00" y="506" text-anchor="middle" class="method">暫定解 x=1</text><rect x="20" y="548" width="400" height="248" rx="12" fill="#fff" stroke="#d6ddd7"/><text x="34" y="576" class="panel-title">ノードを処理するほど、全体の下界が上がる</text><line x1="56" y1="749.18" x2="404" y2="749.18" stroke="#ebe8e0"/><text x="48" y="754.18" text-anchor="end" class="axis">-4</text><line x1="56" y1="715.09" x2="404" y2="715.09" stroke="#ebe8e0"/><text x="48" y="720.09" text-anchor="end" class="axis">-3</text><line x1="56" y1="681.00" x2="404" y2="681.00" stroke="#ebe8e0"/><text x="48" y="686.00" text-anchor="end" class="axis">-2</text><line x1="56" y1="646.91" x2="404" y2="646.91" stroke="#ebe8e0"/><text x="48" y="651.91" text-anchor="end" class="axis">-1</text><line x1="56" y1="612.82" x2="404" y2="612.82" stroke="#ebe8e0"/><text x="48" y="617.82" text-anchor="end" class="axis">0</text><polyline points="56.00,749.18 60.97,715.09 65.94,681.00 70.91,681.00 75.89,672.48 80.86,663.95 85.83,662.89 90.80,661.82 95.77,660.16 100.74,655.43 105.71,655.17 110.69,654.90 115.66,654.56 120.63,653.15 125.60,651.64 130.57,651.17 135.54,651.04 140.51,650.96 145.49,650.59 150.46,650.30 155.43,650.22 160.40,649.80 165.37,649.13 170.34,649.04 175.31,649.01 180.29,648.99 185.26,648.89 190.23,648.83 195.20,648.70 200.17,648.69 205.14,648.56 210.11,648.39 215.09,648.17 220.06,648.02 225.03,647.97 230.00,647.97 234.97,647.96 239.94,647.94 244.91,647.92 249.89,647.88 254.86,647.86 259.83,647.81 264.80,647.77 269.77,647.71 274.74,647.65 279.71,647.65 284.69,647.59 289.66,647.57 294.63,647.50 299.60,647.45 304.57,647.44 309.54,647.44 314.51,647.44 319.49,647.43 324.46,647.43 329.43,647.42 334.40,647.41 339.37,647.40 344.34,647.39 349.31,647.38 354.29,647.37 359.26,647.36 364.23,647.34 369.20,647.34 374.17,647.33 379.14,647.32 384.11,647.31 389.09,647.29 394.06,647.28 399.03,647.26 404.00,647.23" fill="none" stroke="#245c42" stroke-width="4" stroke-linejoin="round"/><polyline points="56.00,612.82 60.97,646.91 65.94,646.91 70.91,646.91 75.89,646.91 80.86,646.91 85.83,646.91 90.80,646.91 95.77,646.91 100.74,646.91 105.71,646.91 110.69,646.91 115.66,646.91 120.63,646.91 125.60,646.91 130.57,646.91 135.54,646.91 140.51,646.91 145.49,646.91 150.46,646.91 155.43,646.91 160.40,646.91 165.37,646.91 170.34,646.91 175.31,646.91 180.29,646.91 185.26,646.91 190.23,646.91 195.20,646.91 200.17,646.91 205.14,646.91 210.11,646.91 215.09,646.91 220.06,646.91 225.03,646.91 230.00,646.91 234.97,646.91 239.94,646.91 244.91,646.91 249.89,646.91 254.86,646.91 259.83,646.91 264.80,646.91 269.77,646.91 274.74,646.91 279.71,646.91 284.69,646.91 289.66,646.91 294.63,646.91 299.60,646.91 304.57,646.91 309.54,646.91 314.51,646.91 319.49,646.91 324.46,646.91 329.43,646.91 334.40,646.91 339.37,646.91 344.34,646.91 349.31,646.91 354.29,646.91 359.26,646.91 364.23,646.91 369.20,646.91 374.17,646.91 379.14,646.91 384.11,646.91 389.09,646.91 394.06,646.91 399.03,646.91 404.00,646.91" fill="none" stroke="#d67835" stroke-width="3.5" stroke-linejoin="round"/><text x="56.00" y="778" text-anchor="middle" class="axis">0</text><text x="155.43" y="778" text-anchor="middle" class="axis">20</text><text x="254.86" y="778" text-anchor="middle" class="axis">40</text><text x="354.29" y="778" text-anchor="middle" class="axis">60</text><text x="404.00" y="778" text-anchor="middle" class="axis">70</text><text x="404" y="818" text-anchor="end" class="axis">横軸: 処理したノード数　緑: 全体の下界　橙: 暫定解</text><text x="20" y="850" class="metric">暫定解の値</text><text x="420" y="850" text-anchor="end" class="metric-value">-1.000</text><text x="20" y="876" class="metric">全体の下界</text><text x="420" y="876" text-anchor="end" class="metric-value">-1.010</text><text x="20" y="902" class="metric">gap</text><text x="420" y="902" text-anchor="end" class="metric-value">0.0095</text><text x="20" y="936" class="caption">実行生成: 区間演算による下界 + 決定論的な</text><text x="20" y="957" class="caption">best-bound探索 · dataset 0.18.21</text><text x="20" y="982" class="caveat">固定した1変数の教材です。McCormick relaxation、</text><text x="20" y="1003" class="caveat">多変数のMINLP、solver一般の性能は示しません。</text><style>text{font-family:system-ui,-apple-system,'Segoe UI',sans-serif;fill:#26352d;font-size:15px}.title{font-size:18px;font-weight:750}.subtitle{fill:#617068}.panel-title{font-size:17px;font-weight:750}.method{font-size:16px;font-weight:750}.metric,.metric-value{font-size:16px;font-variant-numeric:tabular-nums}.metric-value{font-weight:750}.status,.axis,.note{fill:#617068}.caption{fill:#46554d}.caveat{fill:#7a4b38}.halo{paint-order:stroke;stroke:#fff;stroke-width:4px;stroke-linejoin:round}</style></svg>
