<svg xmlns="http://www.w3.org/2000/svg" width="960" height="600" viewBox="0 0 960 600" role="img" aria-labelledby="title desc"><title id="title">0-1 knapsack探索木: 最適性証明</title><desc id="desc">探索木の静止画fallback。緑は実行可能、赤は実行不可能、灰色はbound枝刈り。</desc><style>svg{background:#f7f5ef;font-family:system-ui,sans-serif}line{stroke:#8b877d;stroke-width:2}.node rect{fill:#fff;stroke:#49463f;stroke-width:2}.node text{text-anchor:middle;font-size:11px;fill:#25231f}.infeasible_pruned rect{fill:#f9dddd;stroke:#a53d3d}.bound_pruned rect{fill:#e6e3dc;stroke:#746f65}.optimal rect{fill:#d9f2df;stroke:#2d7a46}text.heading{font-size:15px;font-weight:700;text-anchor:start}</style><text class="heading" x="20" y="24">最適性証明 · best 15 · bound 15.00 · gap 0.0</text><line x1="480.0" y1="94.0" x2="320.0" y2="161.0" /><line x1="480.0" y1="94.0" x2="640.0" y2="161.0" /><line x1="640.0" y1="209.0" x2="320.0" y2="276.0" /><line x1="640.0" y1="209.0" x2="640.0" y2="276.0" /><line x1="640.0" y1="324.0" x2="320.0" y2="391.0" /><line x1="640.0" y1="324.0" x2="640.0" y2="391.0" /><line x1="320.0" y1="439.0" x2="320.0" y2="506.0" /><line x1="320.0" y1="439.0" x2="640.0" y2="506.0" /><g class="node branched" transform="translate(418.0 45.0)"><rect width="124" height="50" rx="8" /><text x="62" y="19">根</text><text x="62" y="38">value 0 · bound 15.00</text></g><g class="node bound_pruned" transform="translate(258.0 160.0)"><rect width="124" height="50" rx="8" /><text x="62" y="19">A=0</text><text x="62" y="38">value 0 · bound 13.33</text></g><g class="node branched" transform="translate(578.0 160.0)"><rect width="124" height="50" rx="8" /><text x="62" y="19">A=1</text><text x="62" y="38">value 9 · bound 15.00</text></g><g class="node bound_pruned" transform="translate(258.0 275.0)"><rect width="124" height="50" rx="8" /><text x="62" y="19">B=0</text><text x="62" y="38">value 9 · bound 14.67</text></g><g class="node branched" transform="translate(578.0 275.0)"><rect width="124" height="50" rx="8" /><text x="62" y="19">B=1</text><text x="62" y="38">value 15 · bound 15.00</text></g><g class="node branched" transform="translate(258.0 390.0)"><rect width="124" height="50" rx="8" /><text x="62" y="19">D=0</text><text x="62" y="38">value 15 · bound 15.00</text></g><g class="node infeasible_pruned" transform="translate(578.0 390.0)"><rect width="124" height="50" rx="8" /><text x="62" y="19">D=1</text><text x="62" y="38">value 19 · bound —</text></g><g class="node optimal" transform="translate(258.0 505.0)"><rect width="124" height="50" rx="8" /><text x="62" y="19">C=0</text><text x="62" y="38">value 15 · bound 15.00</text></g><g class="node infeasible_pruned" transform="translate(578.0 505.0)"><rect width="124" height="50" rx="8" /><text x="62" y="19">C=1</text><text x="62" y="38">value 20 · bound —</text></g></svg>
