<svg xmlns="http://www.w3.org/2000/svg" width="1200" height="675" viewBox="0 0 1200 675" role="img" aria-labelledby="title description">
<title id="title">Nelder–Meadの幾何操作</title>
<desc id="description">各frameの頂点順位、候補点、操作、受理結果、最良値を順に読む。</desc>
<rect width="1200" height="675" fill="#f4f3ed"/>
<rect x="36" y="32" width="1128" height="611" rx="24" fill="#ffffff" stroke="#c9d4cc"/>
<text x="72" y="82" fill="#245c42" font-family="sans-serif" font-size="18" font-weight="700">OPTIMIZATION ATLAS · GUIDED MEDIA</text>
<text x="72" y="126" fill="#17211b" font-family="sans-serif" font-size="34" font-weight="800">Nelder–Meadの幾何操作</text>
<rect x="72" y="146" width="742" height="434" rx="16" fill="#f1f5f0" stroke="#d4ddd6"/>
<g fill="none" stroke="#b9c9bd" stroke-width="2"><ellipse cx="440" cy="355" rx="22.1" ry="65.0" />
<ellipse cx="440" cy="355" rx="39.1" ry="115.0" />
<ellipse cx="440" cy="355" rx="57.8" ry="170.0" />
<ellipse cx="440" cy="355" rx="78.2" ry="230.0" />
<ellipse cx="440" cy="355" rx="98.6" ry="290.0" /></g>
<polyline points="291.25,252.50 291.25,252.50 326.25,334.50 326.25,334.50 396.25,334.50 396.25,334.50 431.25,416.50 431.25,416.50 431.25,416.50 431.25,416.50 431.25,416.50 431.25,416.50 432.34,388.31 432.34,388.31 444.65,399.20 444.65,399.20 445.74,371.02 445.74,371.02 438.77,386.71 438.77,386.71 439.86,358.52 439.86,358.52 439.86,358.52 439.86,358.52 439.86,358.52 439.86,358.52 439.86,358.52 439.86,358.52 439.86,358.52 439.86,358.52 439.86,358.52 439.86,358.52 439.86,358.52 439.86,358.52 439.74,352.39 439.74,352.39 440.27,355.87 440.27,355.87 439.93,356.33 439.93,356.33 439.92,354.25 439.92,354.25 440.10,355.58 440.10,355.58 439.97,355.62 439.97,355.62 439.98,354.92 439.98,354.92 439.98,354.92 439.98,354.92 439.98,354.92 439.98,354.92 439.98,354.92 439.98,354.92 439.98,354.92 439.98,354.92 440.01,355.01 440.01,355.01 440.01,355.01 440.01,355.01 439.99,354.95 439.99,354.95 440.00,355.04 440.00,355.04 440.00,355.00 440.00,355.00 440.00,355.00 440.00,355.00 440.00,355.01 440.00,355.01 440.00,355.00 440.00,355.00 440.00,355.00 440.00,355.00 440.00,355.00 440.00,355.00 440.00,355.00 440.00,355.00 440.00,355.00 440.00,355.00 440.00,355.00 440.00,355.00" fill="none" stroke="#9a462b" stroke-width="6" stroke-linejoin="round" stroke-linecap="round"/>
<polygon points="440.00,355.00 440.00,355.00 440.00,355.00" fill="#9fc2ad" fill-opacity="0.55" stroke="#245c42" stroke-width="5"/>
<g stroke="#245c42" stroke-width="5"><line x1="428" x2="452" y1="355" y2="355"/><line x1="440" x2="440" y1="343" y2="367"/></g>
<rect x="846" y="146" width="286" height="434" rx="16" fill="#eef4ef"/>
<text x="874" y="190" fill="#245c42" font-family="sans-serif" font-size="16" font-weight="700">TERMINAL FRAME</text>
<text x="874" y="228" fill="#17211b" font-family="sans-serif" font-size="21" font-weight="700">simplex + trajectory</text>
<text x="874" y="280" fill="#3c4c43" font-family="sans-serif" font-size="16">等高線上でsimplex頂点、候補点、受理操作、</text>
<text x="874" y="312" fill="#3c4c43" font-family="sans-serif" font-size="16">最良値の変化を示す。</text>
<text x="874" y="504" fill="#617067" font-family="sans-serif" font-size="13">2次元の教育用決定論的実行であり、一般的な性能優劣を示さない</text>
<text x="874" y="530" fill="#617067" font-family="sans-serif" font-size="13"></text>
<text x="72" y="618" fill="#617067" font-family="sans-serif" font-size="14">Scenario SCENARIO_NM_QUADRATIC · Dataset 0.18.10 · CC BY 4.0</text>
</svg>
